%
M48
M72
T01C0.01969
T02C0.03150
T03C0.03200
T04C0.03937
T05C0.04000
T06C0.04724
T07C0.07480
%
T01
X31800Y146800
X46800Y146800
X166800Y131800
X171800Y121800
X181800Y76800
T02
X36879Y170501
X32154Y173650
X36879Y176800
X32154Y179950
X36879Y183099
T03
X61800Y171800
X71800Y171800
X86800Y161800
X86800Y151800
X86800Y141800
X86800Y131800
X86800Y121800
X86800Y111800
X86800Y101800
X86800Y91800
X86800Y81800
X86800Y71800
X86800Y61800
X86800Y51800
X86800Y41800
X86800Y31800
X76800Y31800
X76800Y41800
X51800Y51800
X41800Y51800
X21800Y46800
X11800Y46800
X41800Y11800
X51800Y11800
X91800Y16800
X101800Y16800
X111800Y16800
X116800Y31800
X116800Y41800
X116800Y51800
X116800Y61800
X116800Y71800
X116800Y81800
X116800Y91800
X116800Y101800
X116800Y111800
X116800Y121800
X116800Y131800
X116800Y141800
X116800Y151800
X116800Y161800
X126800Y161800
X126800Y151800
X141800Y166800
X139300Y181800
X139300Y191800
X119300Y189300
X119300Y179300
X101800Y181800
X96800Y189300
X91800Y181800
X131800Y101800
X141800Y101800
X181800Y166800
X151800Y16800
T04
X58926Y186800
X66800Y186800
X74674Y186800
T05
X6800Y136800
X6800Y126800
X6800Y116800
X6800Y106800
X6800Y96800
X6800Y86800
X6800Y76800
X6800Y66800
X71800Y66800
X71800Y76800
X71800Y86800
X194300Y86800
X194300Y76800
X194300Y66800
X194300Y96800
X194300Y106800
X194300Y116800
X194300Y126800
X194300Y136800
X194300Y149300
X194300Y159300
X194300Y169300
X194300Y179300
X194300Y189300
T06
X51052Y186800
X82548Y186800
X149989Y186800
X173611Y186800
X21800Y33611
X21800Y9989
T07
X16800Y162430
X16800Y191170
M30
