G75*
%MOIN*%
%OFA0B0*%
%FSLAX25Y25*%
%IPPOS*%
%LPD*%
%AMOC8*
5,1,8,0,0,1.08239X$1,22.5*
%
%ADD10C,0.00000*%
%ADD11C,0.07400*%
%ADD12OC8,0.05200*%
%ADD13C,0.06300*%
%ADD14OC8,0.06300*%
%ADD15C,0.05150*%
%ADD16C,0.11220*%
%ADD17C,0.07087*%
%ADD18C,0.05200*%
%ADD19C,0.05937*%
%ADD20R,0.07087X0.07087*%
%ADD21C,0.01600*%
%ADD22OC8,0.03169*%
D10*
X0001800Y0001800D02*
X0001800Y0198650D01*
X0198650Y0198650D01*
X0198650Y0001800D01*
X0001800Y0001800D01*
D11*
X0006800Y0066800D03*
X0006800Y0076800D03*
X0006800Y0086800D03*
X0006800Y0096800D03*
X0006800Y0106800D03*
X0006800Y0116800D03*
X0006800Y0126800D03*
X0006800Y0136800D03*
X0071800Y0086800D03*
X0071800Y0076800D03*
X0071800Y0066800D03*
X0194300Y0066800D03*
X0194300Y0076800D03*
X0194300Y0086800D03*
X0194300Y0096800D03*
X0194300Y0106800D03*
X0194300Y0116800D03*
X0194300Y0126800D03*
X0194300Y0136800D03*
X0194300Y0149300D03*
X0194300Y0159300D03*
X0194300Y0169300D03*
X0194300Y0179300D03*
X0194300Y0189300D03*
D12*
X0181800Y0166800D03*
X0141800Y0166800D03*
X0139300Y0181800D03*
X0139300Y0191800D03*
X0126800Y0161800D03*
X0126800Y0151800D03*
X0101800Y0181800D03*
X0096800Y0189300D03*
X0091800Y0181800D03*
X0071800Y0171800D03*
X0061800Y0171800D03*
X0051800Y0051800D03*
X0041800Y0051800D03*
X0021800Y0046800D03*
X0011800Y0046800D03*
X0041800Y0011800D03*
X0051800Y0011800D03*
X0076800Y0031800D03*
X0076800Y0041800D03*
X0091800Y0016800D03*
X0101800Y0016800D03*
X0111800Y0016800D03*
X0151800Y0016800D03*
D13*
X0131800Y0101800D03*
X0119300Y0189300D03*
D14*
X0119300Y0179300D03*
X0141800Y0101800D03*
D15*
X0036879Y0170501D03*
X0032154Y0173650D03*
X0036879Y0176800D03*
X0032154Y0179950D03*
X0036879Y0183099D03*
D16*
X0016800Y0191170D03*
X0016800Y0162430D03*
D17*
X0021800Y0033611D03*
X0021800Y0009989D03*
X0149989Y0186800D03*
X0173611Y0186800D03*
D18*
X0119400Y0161800D02*
X0114200Y0161800D01*
X0114200Y0151800D02*
X0119400Y0151800D01*
X0119400Y0141800D02*
X0114200Y0141800D01*
X0114200Y0131800D02*
X0119400Y0131800D01*
X0119400Y0121800D02*
X0114200Y0121800D01*
X0114200Y0111800D02*
X0119400Y0111800D01*
X0119400Y0101800D02*
X0114200Y0101800D01*
X0114200Y0091800D02*
X0119400Y0091800D01*
X0119400Y0081800D02*
X0114200Y0081800D01*
X0114200Y0071800D02*
X0119400Y0071800D01*
X0119400Y0061800D02*
X0114200Y0061800D01*
X0114200Y0051800D02*
X0119400Y0051800D01*
X0119400Y0041800D02*
X0114200Y0041800D01*
X0114200Y0031800D02*
X0119400Y0031800D01*
X0089400Y0031800D02*
X0084200Y0031800D01*
X0084200Y0041800D02*
X0089400Y0041800D01*
X0089400Y0051800D02*
X0084200Y0051800D01*
X0084200Y0061800D02*
X0089400Y0061800D01*
X0089400Y0071800D02*
X0084200Y0071800D01*
X0084200Y0081800D02*
X0089400Y0081800D01*
X0089400Y0091800D02*
X0084200Y0091800D01*
X0084200Y0101800D02*
X0089400Y0101800D01*
X0089400Y0111800D02*
X0084200Y0111800D01*
X0084200Y0121800D02*
X0089400Y0121800D01*
X0089400Y0131800D02*
X0084200Y0131800D01*
X0084200Y0141800D02*
X0089400Y0141800D01*
X0089400Y0151800D02*
X0084200Y0151800D01*
X0084200Y0161800D02*
X0089400Y0161800D01*
D19*
X0074674Y0186800D03*
X0066800Y0186800D03*
X0058926Y0186800D03*
D20*
X0051052Y0186800D03*
X0082548Y0186800D03*
D21*
X0076800Y0191800D02*
X0091800Y0191800D01*
X0096800Y0189300D01*
X0101800Y0181800D02*
X0119300Y0189300D01*
X0121800Y0191800D01*
X0139300Y0191800D01*
X0156800Y0191800D01*
X0161800Y0186800D01*
X0161800Y0181800D01*
X0158600Y0179400D01*
X0194300Y0179300D01*
X0194300Y0189300D02*
X0173611Y0186800D01*
X0158600Y0179400D02*
X0141800Y0166800D01*
X0131800Y0161800D01*
X0126800Y0161800D01*
X0116800Y0161800D01*
X0116800Y0141800D02*
X0126800Y0141800D01*
X0131800Y0136800D01*
X0194300Y0136800D01*
X0194300Y0126800D02*
X0131800Y0126800D01*
X0126800Y0131800D01*
X0116800Y0131800D01*
X0111800Y0126800D02*
X0126800Y0126800D01*
X0131800Y0121800D01*
X0171800Y0121800D01*
X0166800Y0131800D02*
X0131800Y0131800D01*
X0126800Y0136800D01*
X0111800Y0136800D01*
X0106800Y0131800D01*
X0086800Y0131800D01*
X0086800Y0141800D02*
X0081800Y0141800D01*
X0066800Y0126800D01*
X0006800Y0126800D01*
X0006800Y0116800D02*
X0076800Y0116800D01*
X0081800Y0111800D01*
X0086800Y0111800D01*
X0086800Y0101800D02*
X0081800Y0101800D01*
X0076800Y0106800D01*
X0006800Y0106800D01*
X0006800Y0096800D02*
X0051800Y0051800D01*
X0076800Y0051800D01*
X0086800Y0061800D01*
X0086800Y0071800D02*
X0076800Y0071800D01*
X0071800Y0066800D01*
X0076800Y0081800D02*
X0086800Y0081800D01*
X0076800Y0081800D02*
X0071800Y0086800D01*
X0096800Y0101800D02*
X0106800Y0111800D01*
X0116800Y0111800D01*
X0116800Y0121800D02*
X0126800Y0121800D01*
X0131800Y0116800D01*
X0194300Y0116800D01*
X0194300Y0106800D02*
X0166800Y0106800D01*
X0121800Y0061800D01*
X0116800Y0061800D01*
X0116800Y0051800D02*
X0126800Y0051800D01*
X0171800Y0096800D01*
X0194300Y0096800D01*
X0194300Y0086800D02*
X0176800Y0086800D01*
X0131800Y0041800D01*
X0116800Y0041800D01*
X0116800Y0031800D02*
X0136800Y0031800D01*
X0181800Y0076800D01*
X0194300Y0076800D01*
X0131800Y0091800D02*
X0121800Y0081800D01*
X0116800Y0081800D01*
X0131800Y0091800D02*
X0131800Y0101800D01*
X0106800Y0121800D02*
X0111800Y0126800D01*
X0106800Y0121800D02*
X0086800Y0121800D01*
X0096800Y0101800D02*
X0096800Y0036800D01*
X0091800Y0041800D01*
X0086800Y0041800D01*
X0076800Y0041800D01*
X0051800Y0031800D01*
X0051800Y0011800D01*
X0056800Y0041800D02*
X0016800Y0041800D01*
X0011800Y0046800D01*
X0011800Y0056800D01*
X0016800Y0061800D01*
X0016800Y0076800D01*
X0006800Y0086800D01*
X0031800Y0046800D02*
X0041800Y0051800D01*
X0031800Y0046800D02*
X0021800Y0046800D01*
X0056800Y0041800D02*
X0061800Y0046800D01*
X0076800Y0046800D01*
X0086800Y0051800D01*
X0096800Y0036800D02*
X0096800Y0026800D01*
X0091800Y0021800D01*
X0091800Y0016800D01*
X0101800Y0016800D02*
X0111800Y0016800D01*
X0066800Y0136800D02*
X0006800Y0136800D01*
X0031800Y0146800D02*
X0032154Y0147154D01*
X0032154Y0173650D01*
X0036879Y0176800D02*
X0041800Y0176800D01*
X0046800Y0171800D01*
X0046800Y0146800D01*
X0066800Y0136800D02*
X0081800Y0151800D01*
X0086800Y0151800D01*
X0086800Y0161800D02*
X0096800Y0156800D01*
X0166800Y0156800D01*
X0181800Y0166800D01*
X0076800Y0191800D02*
X0074674Y0186800D01*
X0071800Y0171800D01*
X0056800Y0176800D02*
X0066800Y0186800D01*
X0056800Y0176800D02*
X0046800Y0176800D01*
X0036879Y0183099D01*
D22*
X0031800Y0146800D03*
X0046800Y0146800D03*
X0166800Y0131800D03*
X0171800Y0121800D03*
X0181800Y0076800D03*
M02*
