G75*
%MOIN*%
%OFA0B0*%
%FSLAX25Y25*%
%IPPOS*%
%LPD*%
%AMOC8*
5,1,8,0,0,1.08239X$1,22.5*
%
%ADD10C,0.00000*%
%ADD11C,0.00500*%
%ADD12R,0.28950X0.00150*%
%ADD13R,0.14400X0.00150*%
%ADD14R,0.00150X0.00150*%
%ADD15R,0.13350X0.00150*%
%ADD16R,0.14250X0.00150*%
%ADD17R,0.12000X0.00150*%
%ADD18R,0.11550X0.00150*%
%ADD19R,0.11250X0.00150*%
%ADD20R,0.14100X0.00150*%
%ADD21R,0.11100X0.00150*%
%ADD22R,0.10950X0.00150*%
%ADD23R,0.10800X0.00150*%
%ADD24R,0.10650X0.00150*%
%ADD25R,0.10500X0.00150*%
%ADD26R,0.10350X0.00150*%
%ADD27R,0.13950X0.00150*%
%ADD28R,0.10200X0.00150*%
%ADD29R,0.13800X0.00150*%
%ADD30R,0.10050X0.00150*%
%ADD31R,0.09900X0.00150*%
%ADD32R,0.09750X0.00150*%
%ADD33R,0.09600X0.00150*%
%ADD34R,0.13650X0.00150*%
%ADD35R,0.09300X0.00150*%
%ADD36R,0.13500X0.00150*%
%ADD37R,0.09150X0.00150*%
%ADD38R,0.09000X0.00150*%
%ADD39R,0.13200X0.00150*%
%ADD40R,0.08850X0.00150*%
%ADD41R,0.08400X0.00150*%
%ADD42R,0.13050X0.00150*%
%ADD43R,0.08250X0.00150*%
%ADD44R,0.08100X0.00150*%
%ADD45R,0.03450X0.00150*%
%ADD46R,0.04050X0.00150*%
%ADD47R,0.03150X0.00150*%
%ADD48R,0.03750X0.00150*%
%ADD49R,0.02850X0.00150*%
%ADD50R,0.03600X0.00150*%
%ADD51R,0.03300X0.00150*%
%ADD52R,0.12900X0.00150*%
%ADD53R,0.02700X0.00150*%
%ADD54R,0.12750X0.00150*%
%ADD55R,0.12600X0.00150*%
%ADD56R,0.03000X0.00150*%
%ADD57R,0.12450X0.00150*%
%ADD58R,0.12300X0.00150*%
%ADD59R,0.12150X0.00150*%
%ADD60R,0.02550X0.00150*%
%ADD61R,0.02400X0.00150*%
%ADD62R,0.01950X0.00150*%
%ADD63R,0.01650X0.00150*%
%ADD64R,0.01350X0.00150*%
%ADD65R,0.01200X0.00150*%
%ADD66R,0.02250X0.00150*%
%ADD67R,0.01050X0.00150*%
%ADD68R,0.02100X0.00150*%
%ADD69R,0.01800X0.00150*%
%ADD70R,0.05400X0.00150*%
%ADD71R,0.05550X0.00150*%
%ADD72R,0.05700X0.00150*%
%ADD73R,0.05850X0.00150*%
%ADD74R,0.06000X0.00150*%
%ADD75R,0.11850X0.00150*%
%ADD76R,0.11700X0.00150*%
%ADD77R,0.11400X0.00150*%
%ADD78R,0.05250X0.00150*%
%ADD79R,0.04950X0.00150*%
%ADD80R,0.04800X0.00150*%
%ADD81R,0.04650X0.00150*%
%ADD82R,0.04500X0.00150*%
%ADD83R,0.04350X0.00150*%
%ADD84R,0.04200X0.00150*%
%ADD85R,0.03900X0.00150*%
%ADD86R,0.00750X0.00150*%
%ADD87R,0.01500X0.00150*%
%ADD88R,0.00450X0.00150*%
%ADD89R,0.00900X0.00150*%
%ADD90R,0.05100X0.00150*%
%ADD91R,0.06150X0.00150*%
%ADD92R,0.06300X0.00150*%
%ADD93R,0.06450X0.00150*%
%ADD94R,0.06600X0.00150*%
%ADD95R,0.06750X0.00150*%
%ADD96R,0.06900X0.00150*%
%ADD97R,0.07050X0.00150*%
%ADD98R,0.07200X0.00150*%
%ADD99R,0.07350X0.00150*%
%ADD100R,0.07500X0.00150*%
%ADD101R,0.07650X0.00150*%
%ADD102R,0.07800X0.00150*%
%ADD103R,0.07950X0.00150*%
%ADD104R,0.08550X0.00150*%
%ADD105R,0.00300X0.00150*%
%ADD106R,0.17100X0.00150*%
%ADD107R,0.17400X0.00150*%
%ADD108R,0.17700X0.00150*%
%ADD109R,0.17550X0.00150*%
%ADD110R,0.17250X0.00150*%
%ADD111R,0.17850X0.00150*%
%ADD112C,0.00800*%
%ADD113C,0.00400*%
%ADD114C,0.00600*%
%ADD115C,0.01000*%
%ADD116R,0.03400X0.02400*%
%ADD117R,0.02400X0.03400*%
D10*
X0001800Y0001800D02*
X0001800Y0198650D01*
X0198650Y0198650D01*
X0198650Y0001800D01*
X0001800Y0001800D01*
D11*
X0009989Y0009989D02*
X0033611Y0009989D01*
X0033611Y0033611D01*
X0009989Y0033611D01*
X0009989Y0009989D01*
X0021800Y0013926D02*
X0021800Y0021800D01*
X0029674Y0029674D01*
X0039546Y0030006D02*
X0039546Y0028505D01*
X0040297Y0027754D01*
X0040297Y0026153D02*
X0041047Y0026153D01*
X0041798Y0025402D01*
X0042549Y0026153D01*
X0043299Y0026153D01*
X0044050Y0025402D01*
X0044050Y0023901D01*
X0043299Y0023150D01*
X0041798Y0024651D02*
X0041798Y0025402D01*
X0040297Y0026153D02*
X0039546Y0025402D01*
X0039546Y0023901D01*
X0040297Y0023150D01*
X0043299Y0027754D02*
X0044050Y0028505D01*
X0044050Y0030006D01*
X0043299Y0030756D01*
X0042549Y0030756D01*
X0041798Y0030006D01*
X0041798Y0029255D01*
X0041798Y0030006D02*
X0041047Y0030756D01*
X0040297Y0030756D01*
X0039546Y0030006D01*
X0040297Y0032358D02*
X0039546Y0033108D01*
X0039546Y0034610D01*
X0040297Y0035360D01*
X0043299Y0032358D01*
X0044050Y0033108D01*
X0044050Y0034610D01*
X0043299Y0035360D01*
X0040297Y0035360D01*
X0040297Y0032358D02*
X0043299Y0032358D01*
X0049546Y0033260D02*
X0049546Y0034761D01*
X0050297Y0035512D01*
X0053299Y0032509D01*
X0054050Y0033260D01*
X0054050Y0034761D01*
X0053299Y0035512D01*
X0050297Y0035512D01*
X0049546Y0037113D02*
X0054050Y0037113D01*
X0052549Y0037113D02*
X0051047Y0039365D01*
X0052549Y0037113D02*
X0054050Y0039365D01*
X0053299Y0032509D02*
X0050297Y0032509D01*
X0049546Y0033260D01*
X0049546Y0029407D02*
X0054050Y0029407D01*
X0054050Y0027906D02*
X0054050Y0030908D01*
X0051047Y0027906D02*
X0049546Y0029407D01*
X0066046Y0027584D02*
X0066046Y0026083D01*
X0066797Y0025332D01*
X0069799Y0025332D01*
X0066797Y0028335D01*
X0069799Y0028335D01*
X0070550Y0027584D01*
X0070550Y0026083D01*
X0069799Y0025332D01*
X0066797Y0028335D02*
X0066046Y0027584D01*
X0069799Y0029936D02*
X0069799Y0030687D01*
X0070550Y0030687D01*
X0070550Y0029936D01*
X0069799Y0029936D01*
X0070550Y0032238D02*
X0070550Y0035241D01*
X0070550Y0033739D02*
X0066046Y0033739D01*
X0067547Y0032238D01*
X0067547Y0036842D02*
X0069799Y0036842D01*
X0070550Y0037593D01*
X0070550Y0039845D01*
X0067547Y0039845D01*
X0068298Y0041446D02*
X0068298Y0042947D01*
X0066046Y0041446D02*
X0066046Y0044449D01*
X0066046Y0041446D02*
X0070550Y0041446D01*
X0083046Y0039094D02*
X0083046Y0037593D01*
X0083797Y0036842D01*
X0086799Y0036842D01*
X0087550Y0037593D01*
X0087550Y0039094D01*
X0086799Y0039845D01*
X0086799Y0041446D02*
X0087550Y0042197D01*
X0087550Y0043698D01*
X0086799Y0044449D01*
X0086049Y0044449D01*
X0085298Y0043698D01*
X0085298Y0041446D01*
X0086799Y0041446D01*
X0085298Y0041446D02*
X0083797Y0042947D01*
X0083046Y0044449D01*
X0083797Y0039845D02*
X0083046Y0039094D01*
X0094550Y0018553D02*
X0094550Y0015550D01*
X0094550Y0017051D02*
X0096051Y0018553D01*
X0096802Y0018553D01*
X0098387Y0017802D02*
X0098387Y0016301D01*
X0099137Y0015550D01*
X0100639Y0015550D01*
X0101389Y0017051D02*
X0098387Y0017051D01*
X0098387Y0017802D02*
X0099137Y0018553D01*
X0100639Y0018553D01*
X0101389Y0017802D01*
X0101389Y0017051D01*
X0102991Y0016301D02*
X0102991Y0017802D01*
X0103741Y0018553D01*
X0105993Y0018553D01*
X0105993Y0020054D02*
X0105993Y0015550D01*
X0103741Y0015550D01*
X0102991Y0016301D01*
X0122138Y0015301D02*
X0122889Y0014550D01*
X0124390Y0014550D01*
X0125141Y0015301D01*
X0125141Y0016051D01*
X0124390Y0016802D01*
X0123639Y0016802D01*
X0124390Y0016802D02*
X0125141Y0017553D01*
X0125141Y0018303D01*
X0124390Y0019054D01*
X0122889Y0019054D01*
X0122138Y0018303D01*
X0126742Y0018303D02*
X0127493Y0019054D01*
X0128994Y0019054D01*
X0129745Y0018303D01*
X0129745Y0017553D01*
X0128994Y0016802D01*
X0129745Y0016051D01*
X0129745Y0015301D01*
X0128994Y0014550D01*
X0127493Y0014550D01*
X0126742Y0015301D01*
X0128243Y0016802D02*
X0128994Y0016802D01*
X0131346Y0015301D02*
X0131346Y0018303D01*
X0132097Y0019054D01*
X0133598Y0019054D01*
X0134349Y0018303D01*
X0131346Y0015301D01*
X0132097Y0014550D01*
X0133598Y0014550D01*
X0134349Y0015301D01*
X0134349Y0018303D01*
X0162050Y0047050D02*
X0162050Y0052555D01*
X0163885Y0050720D01*
X0165720Y0052555D01*
X0165720Y0047050D01*
X0167575Y0046133D02*
X0171245Y0046133D01*
X0174934Y0047050D02*
X0174934Y0052555D01*
X0173099Y0052555D02*
X0176769Y0052555D01*
X0178624Y0049802D02*
X0178624Y0047967D01*
X0179542Y0047050D01*
X0181377Y0047050D01*
X0182294Y0047967D01*
X0182294Y0049802D01*
X0181377Y0050720D01*
X0179542Y0050720D01*
X0178624Y0049802D01*
X0184149Y0049802D02*
X0185066Y0050720D01*
X0187819Y0050720D01*
X0187819Y0052555D02*
X0187819Y0047050D01*
X0185066Y0047050D01*
X0184149Y0047967D01*
X0184149Y0049802D01*
X0189674Y0049802D02*
X0190591Y0050720D01*
X0192426Y0050720D01*
X0193343Y0049802D01*
X0193343Y0048885D01*
X0189674Y0048885D01*
X0189674Y0049802D02*
X0189674Y0047967D01*
X0190591Y0047050D01*
X0192426Y0047050D01*
X0195198Y0047050D02*
X0197951Y0047050D01*
X0198868Y0047967D01*
X0197951Y0048885D01*
X0196116Y0048885D01*
X0195198Y0049802D01*
X0196116Y0050720D01*
X0198868Y0050720D01*
X0160362Y0108050D02*
X0160362Y0112554D01*
X0163364Y0112554D01*
X0161863Y0110302D02*
X0160362Y0110302D01*
X0158760Y0111053D02*
X0158760Y0108050D01*
X0156508Y0108050D01*
X0155758Y0108801D01*
X0155758Y0111053D01*
X0154156Y0111803D02*
X0154156Y0108801D01*
X0153406Y0108050D01*
X0151905Y0108050D01*
X0151154Y0108801D01*
X0154156Y0111803D01*
X0153406Y0112554D01*
X0151905Y0112554D01*
X0151154Y0111803D01*
X0151154Y0108801D01*
X0149553Y0108050D02*
X0146550Y0108050D01*
X0148051Y0108050D02*
X0148051Y0112554D01*
X0146550Y0111053D01*
X0147562Y0146050D02*
X0145310Y0146050D01*
X0144560Y0146801D01*
X0144560Y0149053D01*
X0147562Y0149053D02*
X0147562Y0146050D01*
X0149164Y0146050D02*
X0149164Y0150554D01*
X0152166Y0150554D01*
X0150665Y0148302D02*
X0149164Y0148302D01*
X0142958Y0146050D02*
X0139956Y0146050D01*
X0141457Y0146050D02*
X0141457Y0150554D01*
X0139956Y0149053D01*
X0138405Y0146801D02*
X0138405Y0146050D01*
X0137654Y0146050D01*
X0137654Y0146801D01*
X0138405Y0146801D01*
X0136053Y0146801D02*
X0136053Y0149803D01*
X0133050Y0146801D01*
X0133801Y0146050D01*
X0135302Y0146050D01*
X0136053Y0146801D01*
X0136053Y0149803D02*
X0135302Y0150554D01*
X0133801Y0150554D01*
X0133050Y0149803D01*
X0133050Y0146801D01*
X0125362Y0168050D02*
X0125362Y0172554D01*
X0128364Y0172554D01*
X0128050Y0171801D02*
X0128801Y0171050D01*
X0130302Y0171050D01*
X0131053Y0171801D01*
X0131053Y0174803D01*
X0128050Y0171801D01*
X0128050Y0174803D01*
X0128801Y0175554D01*
X0130302Y0175554D01*
X0131053Y0174803D01*
X0132654Y0171801D02*
X0133405Y0171801D01*
X0133405Y0171050D01*
X0132654Y0171050D01*
X0132654Y0171801D01*
X0134956Y0171050D02*
X0137958Y0171050D01*
X0136457Y0171050D02*
X0136457Y0175554D01*
X0134956Y0174053D01*
X0139560Y0174053D02*
X0139560Y0171801D01*
X0140310Y0171050D01*
X0142562Y0171050D01*
X0142562Y0174053D01*
X0144164Y0173302D02*
X0145665Y0173302D01*
X0144164Y0171050D02*
X0144164Y0175554D01*
X0147166Y0175554D01*
X0149989Y0174989D02*
X0173611Y0174989D01*
X0173611Y0198611D01*
X0149989Y0198611D01*
X0149989Y0174989D01*
X0154407Y0169054D02*
X0154407Y0164550D01*
X0152906Y0164550D02*
X0155908Y0164550D01*
X0157509Y0165301D02*
X0160512Y0168303D01*
X0160512Y0165301D01*
X0159761Y0164550D01*
X0158260Y0164550D01*
X0157509Y0165301D01*
X0157509Y0168303D01*
X0158260Y0169054D01*
X0159761Y0169054D01*
X0160512Y0168303D01*
X0162113Y0169054D02*
X0162113Y0164550D01*
X0162113Y0166051D02*
X0164365Y0167553D01*
X0162113Y0166051D02*
X0164365Y0164550D01*
X0154407Y0169054D02*
X0152906Y0167553D01*
X0169674Y0178926D02*
X0161800Y0186800D01*
X0153926Y0186800D01*
X0126863Y0170302D02*
X0125362Y0170302D01*
X0123760Y0171053D02*
X0123760Y0168050D01*
X0121508Y0168050D01*
X0120758Y0168801D01*
X0120758Y0171053D01*
X0119156Y0171803D02*
X0119156Y0168801D01*
X0118406Y0168050D01*
X0116905Y0168050D01*
X0116154Y0168801D01*
X0119156Y0171803D01*
X0118406Y0172554D01*
X0116905Y0172554D01*
X0116154Y0171803D01*
X0116154Y0168801D01*
X0114553Y0168050D02*
X0111550Y0168050D01*
X0113051Y0168050D02*
X0113051Y0172554D01*
X0111550Y0171053D01*
X0105046Y0175300D02*
X0088554Y0175300D01*
X0087927Y0180800D02*
X0086348Y0180800D01*
X0083729Y0178335D02*
X0049871Y0178335D01*
X0049871Y0195265D01*
X0066800Y0195265D01*
X0066800Y0207076D01*
X0074674Y0207076D01*
X0074674Y0195265D01*
X0083729Y0195265D01*
X0083729Y0178335D01*
X0095673Y0180800D02*
X0097927Y0180800D01*
X0088554Y0175300D02*
X0088401Y0175499D01*
X0088253Y0175701D01*
X0088110Y0175906D01*
X0087972Y0176115D01*
X0087839Y0176327D01*
X0087711Y0176542D01*
X0087589Y0176760D01*
X0087471Y0176981D01*
X0087359Y0177205D01*
X0087252Y0177431D01*
X0087151Y0177660D01*
X0087055Y0177891D01*
X0086964Y0178125D01*
X0086879Y0178360D01*
X0086800Y0178598D01*
X0086727Y0178837D01*
X0086659Y0179078D01*
X0086597Y0179320D01*
X0086541Y0179564D01*
X0086490Y0179810D01*
X0086446Y0180056D01*
X0086407Y0180303D01*
X0086375Y0180551D01*
X0086348Y0180800D01*
X0099896Y0191833D02*
X0100138Y0191755D01*
X0100378Y0191671D01*
X0100616Y0191582D01*
X0100852Y0191486D01*
X0101086Y0191385D01*
X0101317Y0191279D01*
X0101545Y0191166D01*
X0101771Y0191049D01*
X0101994Y0190926D01*
X0102213Y0190797D01*
X0102430Y0190663D01*
X0102643Y0190524D01*
X0102853Y0190380D01*
X0103059Y0190231D01*
X0103261Y0190077D01*
X0103460Y0189918D01*
X0103655Y0189754D01*
X0103846Y0189585D01*
X0104032Y0189412D01*
X0104215Y0189235D01*
X0104393Y0189053D01*
X0104566Y0188867D01*
X0104735Y0188676D01*
X0104899Y0188482D01*
X0105059Y0188284D01*
X0105214Y0188082D01*
X0105363Y0187876D01*
X0105508Y0187667D01*
X0105648Y0187454D01*
X0105782Y0187238D01*
X0105911Y0187018D01*
X0106035Y0186796D01*
X0106154Y0186571D01*
X0106266Y0186343D01*
X0106374Y0186112D01*
X0106475Y0185879D01*
X0106571Y0185643D01*
X0106662Y0185405D01*
X0106746Y0185165D01*
X0106825Y0184923D01*
X0106898Y0184679D01*
X0106964Y0184433D01*
X0107025Y0184186D01*
X0107080Y0183938D01*
X0107129Y0183688D01*
X0107172Y0183437D01*
X0107208Y0183185D01*
X0107239Y0182933D01*
X0107263Y0182679D01*
X0107281Y0182426D01*
X0107293Y0182171D01*
X0107299Y0181917D01*
X0107299Y0181662D01*
X0107293Y0181408D01*
X0107280Y0181154D01*
X0107261Y0180900D01*
X0107236Y0180647D01*
X0107205Y0180394D01*
X0107168Y0180142D01*
X0107125Y0179892D01*
X0107076Y0179642D01*
X0107021Y0179393D01*
X0106959Y0179146D01*
X0106892Y0178901D01*
X0106819Y0178657D01*
X0106740Y0178415D01*
X0106655Y0178176D01*
X0106564Y0177938D01*
X0106467Y0177702D01*
X0106365Y0177469D01*
X0106257Y0177239D01*
X0106144Y0177011D01*
X0106025Y0176786D01*
X0105901Y0176564D01*
X0105772Y0176345D01*
X0105637Y0176129D01*
X0105497Y0175916D01*
X0105351Y0175707D01*
X0105201Y0175502D01*
X0105046Y0175300D01*
X0105673Y0180800D02*
X0107252Y0180800D01*
X0093704Y0191833D02*
X0093460Y0191755D01*
X0093218Y0191670D01*
X0092979Y0191580D01*
X0092741Y0191484D01*
X0092506Y0191382D01*
X0092273Y0191274D01*
X0092043Y0191161D01*
X0091816Y0191042D01*
X0091592Y0190918D01*
X0091371Y0190788D01*
X0091154Y0190653D01*
X0090939Y0190512D01*
X0090728Y0190366D01*
X0090521Y0190216D01*
X0090318Y0190060D01*
X0090118Y0189899D01*
X0089922Y0189734D01*
X0089731Y0189564D01*
X0089543Y0189389D01*
X0089360Y0189209D01*
X0089182Y0189026D01*
X0089007Y0188837D01*
X0088838Y0188645D01*
X0088673Y0188449D01*
X0088513Y0188248D01*
X0088359Y0188044D01*
X0088209Y0187836D01*
X0088064Y0187625D01*
X0087924Y0187410D01*
X0087790Y0187192D01*
X0087661Y0186970D01*
X0087538Y0186746D01*
X0087420Y0186518D01*
X0087307Y0186288D01*
X0087201Y0186055D01*
X0087100Y0185819D01*
X0087004Y0185581D01*
X0086915Y0185341D01*
X0086832Y0185099D01*
X0086754Y0184854D01*
X0086683Y0184608D01*
X0086617Y0184360D01*
X0086558Y0184111D01*
X0086504Y0183861D01*
X0086457Y0183609D01*
X0086416Y0183356D01*
X0086381Y0183102D01*
X0086352Y0182847D01*
X0086330Y0182592D01*
X0086314Y0182336D01*
X0086304Y0182080D01*
X0086300Y0181824D01*
X0086303Y0181567D01*
X0086311Y0181311D01*
X0086326Y0181055D01*
X0086348Y0180800D01*
X0074674Y0195265D02*
X0066800Y0195265D01*
X0063739Y0165054D02*
X0063739Y0160550D01*
X0062238Y0160550D02*
X0065241Y0160550D01*
X0066842Y0161301D02*
X0067593Y0160550D01*
X0069845Y0160550D01*
X0069845Y0163553D01*
X0071446Y0162802D02*
X0072947Y0162802D01*
X0071446Y0160550D02*
X0071446Y0165054D01*
X0074449Y0165054D01*
X0066842Y0163553D02*
X0066842Y0161301D01*
X0063739Y0165054D02*
X0062238Y0163553D01*
X0060687Y0161301D02*
X0060687Y0160550D01*
X0059936Y0160550D01*
X0059936Y0161301D01*
X0060687Y0161301D01*
X0058335Y0161301D02*
X0058335Y0164303D01*
X0055332Y0161301D01*
X0056083Y0160550D01*
X0057584Y0160550D01*
X0058335Y0161301D01*
X0058335Y0164303D02*
X0057584Y0165054D01*
X0056083Y0165054D01*
X0055332Y0164303D01*
X0055332Y0161301D01*
X0099546Y0128198D02*
X0099546Y0125946D01*
X0104050Y0125946D01*
X0104050Y0128198D01*
X0103299Y0128948D01*
X0102549Y0128948D01*
X0101798Y0128198D01*
X0101798Y0125946D01*
X0101047Y0124345D02*
X0101798Y0123594D01*
X0101798Y0122093D01*
X0101047Y0121342D01*
X0100297Y0121342D01*
X0099546Y0122093D01*
X0099546Y0123594D01*
X0100297Y0124345D01*
X0101047Y0124345D01*
X0101798Y0123594D02*
X0102549Y0124345D01*
X0103299Y0124345D01*
X0104050Y0123594D01*
X0104050Y0122093D01*
X0103299Y0121342D01*
X0102549Y0121342D01*
X0101798Y0122093D01*
X0101047Y0119741D02*
X0100297Y0119741D01*
X0099546Y0118990D01*
X0099546Y0117489D01*
X0100297Y0116738D01*
X0101047Y0119741D02*
X0104050Y0116738D01*
X0104050Y0119741D01*
X0104050Y0115137D02*
X0104050Y0112134D01*
X0104050Y0113635D02*
X0099546Y0113635D01*
X0101047Y0112134D01*
X0099546Y0110533D02*
X0099546Y0107530D01*
X0104050Y0107530D01*
X0103299Y0105929D02*
X0104050Y0105178D01*
X0104050Y0103677D01*
X0103299Y0102926D01*
X0100297Y0105929D01*
X0103299Y0105929D01*
X0101798Y0107530D02*
X0101798Y0109032D01*
X0100297Y0105929D02*
X0099546Y0105178D01*
X0099546Y0103677D01*
X0100297Y0102926D01*
X0103299Y0102926D01*
X0103299Y0101325D02*
X0101798Y0101325D01*
X0101047Y0100574D01*
X0101047Y0099824D01*
X0101798Y0098322D01*
X0099546Y0098322D01*
X0099546Y0101325D01*
X0103299Y0101325D02*
X0104050Y0100574D01*
X0104050Y0099073D01*
X0103299Y0098322D01*
X0104050Y0096721D02*
X0104050Y0093718D01*
X0101047Y0096721D01*
X0100297Y0096721D01*
X0099546Y0095970D01*
X0099546Y0094469D01*
X0100297Y0093718D01*
X0099546Y0092117D02*
X0104050Y0089115D01*
X0104050Y0087513D02*
X0099546Y0087513D01*
X0101047Y0086012D01*
X0099546Y0084511D01*
X0104050Y0084511D01*
X0104050Y0082909D02*
X0104050Y0079907D01*
X0101047Y0082909D01*
X0100297Y0082909D01*
X0099546Y0082159D01*
X0099546Y0080657D01*
X0100297Y0079907D01*
X0100297Y0078305D02*
X0099546Y0077555D01*
X0099546Y0076053D01*
X0100297Y0075303D01*
X0100297Y0073701D02*
X0099546Y0072951D01*
X0099546Y0071449D01*
X0100297Y0070699D01*
X0103299Y0070699D01*
X0104050Y0071449D01*
X0104050Y0072951D01*
X0103299Y0073701D01*
X0103299Y0075303D02*
X0104050Y0076053D01*
X0104050Y0077555D01*
X0103299Y0078305D01*
X0102549Y0078305D01*
X0101798Y0077555D01*
X0101798Y0076804D01*
X0101798Y0077555D02*
X0101047Y0078305D01*
X0100297Y0078305D01*
X0099546Y0069131D02*
X0099546Y0067630D01*
X0099546Y0068380D02*
X0104050Y0068380D01*
X0104050Y0067630D02*
X0104050Y0069131D01*
X0101798Y0066028D02*
X0102549Y0065278D01*
X0102549Y0063026D01*
X0104050Y0063026D02*
X0099546Y0063026D01*
X0099546Y0065278D01*
X0100297Y0066028D01*
X0101798Y0066028D01*
X0099546Y0089115D02*
X0104050Y0092117D01*
X0083750Y0090799D02*
X0083750Y0090048D01*
X0082999Y0090048D01*
X0082999Y0090799D01*
X0083750Y0090799D01*
X0099546Y0128198D02*
X0100297Y0128948D01*
X0101047Y0128948D01*
X0101798Y0128198D01*
X0039450Y0058553D02*
X0037198Y0058553D01*
X0037198Y0055550D01*
X0035597Y0057051D02*
X0032594Y0057051D01*
X0032594Y0056301D02*
X0032594Y0057802D01*
X0033345Y0058553D01*
X0034846Y0058553D01*
X0035597Y0057802D01*
X0035597Y0057051D01*
X0034846Y0055550D02*
X0033345Y0055550D01*
X0032594Y0056301D01*
X0030993Y0057051D02*
X0027991Y0057051D01*
X0027991Y0056301D02*
X0027991Y0057802D01*
X0028741Y0058553D01*
X0030242Y0058553D01*
X0030993Y0057802D01*
X0030993Y0057051D01*
X0030242Y0055550D02*
X0028741Y0055550D01*
X0027991Y0056301D01*
X0026406Y0058553D02*
X0025655Y0058553D01*
X0024154Y0057051D01*
X0024154Y0055550D02*
X0024154Y0058553D01*
X0022553Y0058553D02*
X0020301Y0058553D01*
X0019550Y0057802D01*
X0019550Y0056301D01*
X0020301Y0055550D01*
X0022553Y0055550D01*
X0022553Y0054799D02*
X0022553Y0058553D01*
X0022553Y0054799D02*
X0021802Y0054049D01*
X0021051Y0054049D01*
X0039450Y0058553D02*
X0040201Y0057802D01*
X0040201Y0055550D01*
D12*
X0178500Y0041100D03*
X0178500Y0040950D03*
X0178500Y0040800D03*
X0178500Y0040650D03*
X0178500Y0040500D03*
X0178500Y0040350D03*
X0178500Y0040200D03*
X0178500Y0040050D03*
X0178500Y0039900D03*
X0178500Y0039750D03*
X0178500Y0039600D03*
X0178500Y0039450D03*
X0178500Y0039300D03*
X0178500Y0039150D03*
X0178500Y0008700D03*
X0178500Y0008550D03*
X0178500Y0008400D03*
X0178500Y0008250D03*
X0178500Y0008100D03*
X0178500Y0007950D03*
X0178500Y0007800D03*
X0178500Y0007650D03*
X0178500Y0007500D03*
X0178500Y0007350D03*
X0178500Y0007200D03*
X0178500Y0007050D03*
D13*
X0171225Y0008850D03*
D14*
X0178650Y0008850D03*
X0184350Y0035100D03*
X0184200Y0035250D03*
X0184050Y0035400D03*
X0184050Y0035550D03*
X0183900Y0035700D03*
X0173700Y0038850D03*
X0171600Y0038400D03*
D15*
X0170700Y0012000D03*
X0170700Y0011850D03*
X0170700Y0011700D03*
X0170700Y0011550D03*
X0186300Y0008850D03*
D16*
X0171150Y0009000D03*
X0171150Y0009150D03*
X0171150Y0009300D03*
X0171150Y0009750D03*
X0171150Y0009900D03*
X0171150Y0010050D03*
D17*
X0170025Y0015750D03*
X0170025Y0015900D03*
X0170025Y0016050D03*
X0170025Y0016200D03*
X0170025Y0016350D03*
X0170025Y0016500D03*
X0170025Y0021450D03*
X0170025Y0021600D03*
X0186975Y0009000D03*
D18*
X0187200Y0009150D03*
X0169800Y0022050D03*
D19*
X0169650Y0022350D03*
X0169650Y0023850D03*
X0169650Y0024150D03*
X0169650Y0024300D03*
X0169650Y0024600D03*
X0169650Y0024900D03*
X0169650Y0025050D03*
X0187350Y0009300D03*
D20*
X0171075Y0009450D03*
X0171075Y0009600D03*
X0171075Y0010200D03*
D21*
X0169575Y0022500D03*
X0169575Y0022650D03*
X0169575Y0022800D03*
X0169575Y0023250D03*
X0169575Y0023400D03*
X0169575Y0023550D03*
X0169575Y0023700D03*
X0169575Y0024000D03*
X0187425Y0009450D03*
D22*
X0187500Y0009600D03*
X0169500Y0022950D03*
X0169500Y0023100D03*
D23*
X0169425Y0039000D03*
X0187575Y0009750D03*
D24*
X0187650Y0009900D03*
D25*
X0187725Y0010050D03*
D26*
X0187800Y0010200D03*
D27*
X0171000Y0010350D03*
D28*
X0187875Y0010350D03*
D29*
X0170925Y0010500D03*
X0170925Y0010650D03*
X0170925Y0010800D03*
X0170925Y0010950D03*
X0170925Y0011100D03*
D30*
X0169050Y0025200D03*
X0187950Y0010500D03*
D31*
X0188025Y0010650D03*
X0188025Y0010800D03*
D32*
X0188100Y0010950D03*
D33*
X0188175Y0011100D03*
D34*
X0170850Y0011250D03*
D35*
X0188325Y0011250D03*
D36*
X0170775Y0011400D03*
D37*
X0188400Y0011400D03*
X0188400Y0011550D03*
X0188400Y0011700D03*
D38*
X0188475Y0011850D03*
X0188475Y0012000D03*
X0188475Y0012150D03*
X0188475Y0012300D03*
X0168525Y0038850D03*
D39*
X0170625Y0012600D03*
X0170625Y0012450D03*
X0170625Y0012300D03*
X0170625Y0012150D03*
D40*
X0188550Y0012450D03*
D41*
X0188775Y0012600D03*
X0188775Y0034500D03*
X0188775Y0035100D03*
X0188775Y0036150D03*
X0188775Y0036300D03*
D42*
X0186450Y0037200D03*
X0170550Y0013650D03*
X0170550Y0013500D03*
X0170550Y0013350D03*
X0170550Y0013200D03*
X0170550Y0013050D03*
X0170550Y0012900D03*
X0170550Y0012750D03*
D43*
X0188850Y0012750D03*
X0188850Y0034350D03*
X0188850Y0035250D03*
X0188850Y0035400D03*
X0188850Y0035550D03*
X0188850Y0035700D03*
X0188850Y0035850D03*
X0188850Y0036000D03*
D44*
X0188925Y0034200D03*
X0188925Y0034050D03*
X0188925Y0012900D03*
X0168075Y0038700D03*
D45*
X0165750Y0035550D03*
X0165750Y0025950D03*
X0186750Y0013050D03*
X0191250Y0013500D03*
X0191250Y0024150D03*
D46*
X0190950Y0023550D03*
X0190950Y0013050D03*
X0166050Y0025500D03*
X0166050Y0036000D03*
X0166050Y0036150D03*
X0166050Y0036750D03*
D47*
X0165600Y0026250D03*
X0186450Y0014700D03*
X0186600Y0014850D03*
X0186600Y0013200D03*
X0191400Y0013950D03*
X0191400Y0014100D03*
X0191400Y0024450D03*
D48*
X0191100Y0023850D03*
X0191100Y0013200D03*
X0165900Y0025800D03*
X0165900Y0035850D03*
D49*
X0165450Y0035400D03*
X0165450Y0026400D03*
X0186450Y0014400D03*
X0186450Y0014250D03*
X0186600Y0013800D03*
X0186600Y0013650D03*
X0186600Y0013500D03*
X0186600Y0013350D03*
X0186900Y0015150D03*
X0188850Y0018150D03*
X0189000Y0018450D03*
X0191550Y0015150D03*
X0191550Y0015000D03*
X0191550Y0014850D03*
X0191550Y0024750D03*
D50*
X0191175Y0024000D03*
X0191175Y0013350D03*
X0165825Y0035700D03*
D51*
X0165675Y0026100D03*
X0191325Y0024300D03*
X0191325Y0013800D03*
X0191325Y0013650D03*
D52*
X0170475Y0013800D03*
X0170475Y0013950D03*
X0170475Y0018450D03*
X0170475Y0018600D03*
X0170475Y0018750D03*
X0170475Y0018900D03*
D53*
X0165375Y0026550D03*
X0165375Y0035250D03*
X0186975Y0015300D03*
X0186525Y0014100D03*
X0186525Y0013950D03*
X0188775Y0018000D03*
X0188925Y0018300D03*
X0191625Y0015450D03*
X0191625Y0015300D03*
X0191625Y0024900D03*
D54*
X0186600Y0037050D03*
X0170400Y0019950D03*
X0170400Y0019800D03*
X0170400Y0019350D03*
X0170400Y0019200D03*
X0170400Y0019050D03*
X0170400Y0018300D03*
X0170400Y0014100D03*
D55*
X0170325Y0014250D03*
X0170325Y0014400D03*
X0170325Y0018150D03*
X0170325Y0019500D03*
X0170325Y0019650D03*
X0170325Y0020100D03*
X0170325Y0020250D03*
D56*
X0186375Y0014550D03*
X0186675Y0015000D03*
X0191475Y0014700D03*
X0191475Y0014550D03*
X0191475Y0014400D03*
X0191475Y0014250D03*
X0191475Y0024600D03*
D57*
X0170250Y0020550D03*
X0170250Y0020400D03*
X0170250Y0018000D03*
X0170250Y0015000D03*
X0170250Y0014850D03*
X0170250Y0014700D03*
X0170250Y0014550D03*
D58*
X0170175Y0015150D03*
X0170175Y0015300D03*
X0170175Y0017700D03*
X0170175Y0017850D03*
X0170175Y0020700D03*
X0170175Y0020850D03*
X0170175Y0021000D03*
D59*
X0170100Y0021150D03*
X0170100Y0021300D03*
X0170100Y0017550D03*
X0170100Y0017400D03*
X0170100Y0017250D03*
X0170100Y0017100D03*
X0170100Y0016950D03*
X0170100Y0016800D03*
X0170100Y0016650D03*
X0170100Y0015600D03*
X0170100Y0015450D03*
X0186900Y0036900D03*
D60*
X0189900Y0028500D03*
X0191700Y0025050D03*
X0191700Y0015750D03*
X0191700Y0015600D03*
X0187050Y0015450D03*
X0165300Y0026700D03*
X0165300Y0034950D03*
X0165300Y0035100D03*
D61*
X0165225Y0034800D03*
X0165225Y0027150D03*
X0165225Y0027000D03*
X0165225Y0026850D03*
X0172425Y0025500D03*
X0187125Y0015600D03*
X0188625Y0017400D03*
X0188625Y0017550D03*
X0188775Y0017700D03*
X0188775Y0017850D03*
X0191775Y0016200D03*
X0191775Y0016050D03*
X0191775Y0015900D03*
X0191775Y0025200D03*
X0191775Y0025350D03*
X0189825Y0028350D03*
D62*
X0192000Y0026250D03*
X0192000Y0026100D03*
X0192000Y0025950D03*
X0192000Y0025800D03*
X0192000Y0017850D03*
X0192000Y0017700D03*
X0192000Y0017550D03*
X0192000Y0017400D03*
X0192000Y0017250D03*
X0192000Y0017100D03*
X0188550Y0017250D03*
X0187350Y0015750D03*
X0165000Y0027750D03*
X0165000Y0027900D03*
X0165000Y0034050D03*
X0165000Y0034200D03*
D63*
X0164850Y0033750D03*
X0164850Y0028200D03*
X0164850Y0028050D03*
X0187500Y0015900D03*
X0192150Y0026700D03*
X0192150Y0026850D03*
D64*
X0192300Y0027300D03*
X0192300Y0027450D03*
X0192300Y0027600D03*
X0192300Y0027750D03*
X0192300Y0027900D03*
X0192300Y0028200D03*
X0192300Y0028350D03*
X0192300Y0028500D03*
X0189450Y0028200D03*
X0188250Y0016950D03*
X0187650Y0016050D03*
X0170250Y0025500D03*
X0164700Y0028500D03*
X0164700Y0030450D03*
X0164700Y0030600D03*
X0164700Y0030750D03*
X0164700Y0030900D03*
X0164700Y0031050D03*
X0164700Y0031200D03*
X0164700Y0031350D03*
X0164700Y0031500D03*
X0164700Y0031950D03*
X0164700Y0032100D03*
X0164700Y0033000D03*
X0164700Y0033150D03*
D65*
X0164625Y0032850D03*
X0164625Y0032700D03*
X0164625Y0032400D03*
X0164625Y0032250D03*
X0164625Y0031800D03*
X0164625Y0031650D03*
X0164625Y0030300D03*
X0164625Y0030150D03*
X0164625Y0029100D03*
X0164625Y0028650D03*
X0187725Y0016350D03*
X0187725Y0016200D03*
X0192375Y0028050D03*
D66*
X0191850Y0025500D03*
X0191850Y0018450D03*
X0191850Y0016950D03*
X0191850Y0016500D03*
X0191850Y0016350D03*
X0178050Y0037200D03*
X0165150Y0034650D03*
X0165150Y0027450D03*
X0165150Y0027300D03*
D67*
X0164550Y0028800D03*
X0164550Y0028950D03*
X0164550Y0029250D03*
X0164550Y0029400D03*
X0164550Y0030000D03*
X0164550Y0032550D03*
X0182250Y0036750D03*
X0183750Y0036750D03*
X0188100Y0016800D03*
X0187950Y0016650D03*
X0187950Y0016500D03*
D68*
X0191925Y0016650D03*
X0191925Y0016800D03*
X0191925Y0018000D03*
X0191925Y0018150D03*
X0191925Y0018300D03*
X0191925Y0025650D03*
X0165075Y0027600D03*
X0165075Y0034350D03*
X0165075Y0034500D03*
D69*
X0164925Y0033900D03*
X0178125Y0037050D03*
X0192075Y0026550D03*
X0192075Y0026400D03*
X0188475Y0017100D03*
D70*
X0190275Y0018600D03*
X0190275Y0018750D03*
X0190275Y0021600D03*
X0190275Y0021750D03*
X0190275Y0021900D03*
X0190275Y0022050D03*
X0190275Y0022200D03*
X0190275Y0029850D03*
X0166725Y0038100D03*
D71*
X0166800Y0038250D03*
X0166800Y0038400D03*
X0190200Y0021450D03*
X0190200Y0021300D03*
X0190200Y0019050D03*
X0190200Y0018900D03*
D72*
X0190125Y0019200D03*
X0190125Y0019350D03*
X0190125Y0019500D03*
X0190125Y0019950D03*
X0190125Y0020100D03*
X0190125Y0020250D03*
X0190125Y0021000D03*
X0190125Y0021150D03*
X0190125Y0030000D03*
D73*
X0190050Y0020850D03*
X0190050Y0020700D03*
X0190050Y0020400D03*
X0190050Y0019800D03*
X0190050Y0019650D03*
D74*
X0189975Y0020550D03*
X0189975Y0030150D03*
X0189975Y0030300D03*
X0189975Y0030450D03*
D75*
X0169950Y0021750D03*
D76*
X0169875Y0021900D03*
D77*
X0169725Y0022200D03*
X0169725Y0024450D03*
X0169725Y0024750D03*
D78*
X0166650Y0037950D03*
X0190350Y0029700D03*
X0190350Y0022350D03*
D79*
X0190500Y0022500D03*
X0190500Y0029400D03*
X0166500Y0037650D03*
D80*
X0166425Y0037500D03*
X0171375Y0025350D03*
X0190575Y0022650D03*
X0190575Y0029250D03*
D81*
X0190650Y0029100D03*
X0190650Y0022950D03*
X0190650Y0022800D03*
D82*
X0190725Y0023100D03*
X0190725Y0028950D03*
X0166275Y0037350D03*
D83*
X0166200Y0037200D03*
X0166200Y0037050D03*
X0166200Y0025350D03*
X0190800Y0023250D03*
X0190800Y0028800D03*
D84*
X0190875Y0028650D03*
X0190875Y0023400D03*
X0166125Y0036900D03*
D85*
X0165975Y0036600D03*
X0165975Y0036450D03*
X0165975Y0036300D03*
X0165975Y0025650D03*
X0191025Y0023700D03*
D86*
X0174750Y0025200D03*
X0164400Y0029700D03*
D87*
X0164775Y0028350D03*
X0164775Y0033300D03*
X0164775Y0033450D03*
X0164775Y0033600D03*
X0170625Y0038400D03*
X0178125Y0036900D03*
X0178125Y0036750D03*
X0192225Y0027150D03*
X0192225Y0027000D03*
D88*
X0189150Y0028050D03*
X0178650Y0036450D03*
D89*
X0178575Y0036600D03*
X0170625Y0038250D03*
X0164475Y0029850D03*
X0164475Y0029550D03*
D90*
X0166575Y0037800D03*
X0190425Y0029550D03*
D91*
X0189900Y0030600D03*
X0189900Y0030750D03*
D92*
X0189825Y0030900D03*
X0189825Y0031050D03*
D93*
X0189750Y0031200D03*
D94*
X0189675Y0031350D03*
D95*
X0189600Y0031500D03*
D96*
X0189525Y0031650D03*
D97*
X0189450Y0031800D03*
X0189450Y0031950D03*
X0189450Y0032100D03*
X0189450Y0032250D03*
X0189450Y0032400D03*
X0189450Y0032550D03*
D98*
X0189375Y0032700D03*
X0189375Y0032850D03*
D99*
X0189300Y0033000D03*
D100*
X0189225Y0033150D03*
D101*
X0189150Y0033300D03*
X0189150Y0033600D03*
D102*
X0189075Y0033750D03*
X0189075Y0033450D03*
X0167925Y0038550D03*
D103*
X0189000Y0033900D03*
D104*
X0188700Y0034650D03*
X0188700Y0034800D03*
X0188700Y0034950D03*
X0188700Y0036450D03*
X0188700Y0036600D03*
X0188700Y0036750D03*
D105*
X0182325Y0036600D03*
D106*
X0184425Y0037350D03*
D107*
X0184275Y0037500D03*
X0184275Y0037950D03*
X0184275Y0038250D03*
X0184275Y0038700D03*
X0184275Y0038850D03*
D108*
X0184125Y0037650D03*
D109*
X0184200Y0037800D03*
X0184200Y0038400D03*
X0184200Y0038550D03*
D110*
X0184350Y0038100D03*
D111*
X0184050Y0039000D03*
D112*
X0191800Y0061800D02*
X0189300Y0064300D01*
X0189300Y0069300D01*
X0191800Y0071800D01*
X0189300Y0074300D01*
X0189300Y0079300D01*
X0191800Y0081800D01*
X0189300Y0084300D01*
X0189300Y0089300D01*
X0191800Y0091800D01*
X0189300Y0094300D01*
X0189300Y0099300D01*
X0191800Y0101800D01*
X0189300Y0104300D01*
X0189300Y0109300D01*
X0191800Y0111800D01*
X0189300Y0114300D01*
X0189300Y0119300D01*
X0191800Y0121800D01*
X0189300Y0124300D01*
X0189300Y0129300D01*
X0191800Y0131800D01*
X0189300Y0134300D01*
X0189300Y0139300D01*
X0191800Y0141800D01*
X0196800Y0141800D01*
X0199300Y0139300D01*
X0199300Y0134300D01*
X0196800Y0131800D01*
X0199300Y0129300D01*
X0199300Y0124300D01*
X0196800Y0121800D01*
X0199300Y0119300D01*
X0199300Y0114300D01*
X0196800Y0111800D01*
X0199300Y0109300D01*
X0199300Y0104300D01*
X0196800Y0101800D01*
X0199300Y0099300D01*
X0199300Y0094300D01*
X0196800Y0091800D01*
X0199300Y0089300D01*
X0199300Y0084300D01*
X0196800Y0081800D01*
X0199300Y0079300D01*
X0199300Y0074300D01*
X0196800Y0071800D01*
X0199300Y0069300D01*
X0199300Y0064300D01*
X0196800Y0061800D01*
X0191800Y0061800D01*
X0191800Y0144300D02*
X0196800Y0144300D01*
X0199300Y0146800D01*
X0199300Y0151800D01*
X0196800Y0154300D01*
X0199300Y0156800D01*
X0199300Y0161800D01*
X0196800Y0164300D01*
X0199300Y0166800D01*
X0199300Y0171800D01*
X0196800Y0174300D01*
X0199300Y0176800D01*
X0199300Y0181800D01*
X0196800Y0184300D01*
X0199300Y0186800D01*
X0199300Y0191800D01*
X0196800Y0194300D01*
X0191800Y0194300D01*
X0189300Y0191800D01*
X0189300Y0186800D01*
X0191800Y0184300D01*
X0189300Y0181800D01*
X0189300Y0176800D01*
X0191800Y0174300D01*
X0189300Y0171800D01*
X0189300Y0166800D01*
X0191800Y0164300D01*
X0189300Y0161800D01*
X0189300Y0156800D01*
X0191800Y0154300D01*
X0189300Y0151800D01*
X0189300Y0146800D01*
X0191800Y0144300D01*
X0076800Y0089300D02*
X0076800Y0084300D01*
X0074300Y0081800D01*
X0076800Y0079300D01*
X0076800Y0074300D01*
X0074300Y0071800D01*
X0076800Y0069300D01*
X0076800Y0064300D01*
X0074300Y0061800D01*
X0069300Y0061800D01*
X0066800Y0064300D01*
X0066800Y0069300D01*
X0069300Y0071800D01*
X0066800Y0074300D01*
X0066800Y0079300D01*
X0069300Y0081800D01*
X0066800Y0084300D01*
X0066800Y0089300D01*
X0069300Y0091800D01*
X0074300Y0091800D01*
X0076800Y0089300D01*
X0011800Y0089300D02*
X0011800Y0084300D01*
X0009300Y0081800D01*
X0011800Y0079300D01*
X0011800Y0074300D01*
X0009300Y0071800D01*
X0011800Y0069300D01*
X0011800Y0064300D01*
X0009300Y0061800D01*
X0004300Y0061800D01*
X0001800Y0064300D01*
X0001800Y0069300D01*
X0004300Y0071800D01*
X0001800Y0074300D01*
X0001800Y0079300D01*
X0004300Y0081800D01*
X0001800Y0084300D01*
X0001800Y0089300D01*
X0004300Y0091800D01*
X0001800Y0094300D01*
X0001800Y0099300D01*
X0004300Y0101800D01*
X0001800Y0104300D01*
X0001800Y0109300D01*
X0004300Y0111800D01*
X0001800Y0114300D01*
X0001800Y0119300D01*
X0004300Y0121800D01*
X0001800Y0124300D01*
X0001800Y0129300D01*
X0004300Y0131800D01*
X0001800Y0134300D01*
X0001800Y0139300D01*
X0004300Y0141800D01*
X0009300Y0141800D01*
X0011800Y0139300D01*
X0011800Y0134300D01*
X0009300Y0131800D01*
X0011800Y0129300D01*
X0011800Y0124300D01*
X0009300Y0121800D01*
X0011800Y0119300D01*
X0011800Y0114300D01*
X0009300Y0111800D01*
X0011800Y0109300D01*
X0011800Y0104300D01*
X0009300Y0101800D01*
X0011800Y0099300D01*
X0011800Y0094300D01*
X0009300Y0091800D01*
X0011800Y0089300D01*
D113*
X0059496Y0085861D02*
X0064100Y0085861D01*
X0064100Y0087396D02*
X0064100Y0090465D01*
X0061031Y0090465D02*
X0064100Y0087396D01*
X0061798Y0085861D02*
X0061798Y0082792D01*
X0064100Y0082792D02*
X0059496Y0082792D01*
X0059496Y0081257D02*
X0064100Y0081257D01*
X0064100Y0078188D02*
X0059496Y0078188D01*
X0061031Y0079723D01*
X0059496Y0081257D01*
X0061031Y0087396D02*
X0061031Y0090465D01*
X0061031Y0076654D02*
X0061798Y0075886D01*
X0061798Y0074352D01*
X0061031Y0073584D01*
X0060263Y0073584D01*
X0059496Y0074352D01*
X0059496Y0075886D01*
X0060263Y0076654D01*
X0061031Y0076654D01*
X0061798Y0075886D02*
X0062565Y0076654D01*
X0063333Y0076654D01*
X0064100Y0075886D01*
X0064100Y0074352D01*
X0063333Y0073584D01*
X0062565Y0073584D01*
X0061798Y0074352D01*
X0009100Y0028881D02*
X0007565Y0027346D01*
X0007565Y0028114D02*
X0007565Y0025812D01*
X0009100Y0025812D02*
X0004496Y0025812D01*
X0004496Y0028114D01*
X0005263Y0028881D01*
X0006798Y0028881D01*
X0007565Y0028114D01*
X0009100Y0024277D02*
X0009100Y0021208D01*
X0004496Y0021208D01*
X0004496Y0024277D01*
X0006798Y0022742D02*
X0006798Y0021208D01*
X0007565Y0019673D02*
X0008333Y0019673D01*
X0009100Y0018906D01*
X0009100Y0017371D01*
X0008333Y0016604D01*
X0008333Y0015069D02*
X0004496Y0015069D01*
X0005263Y0016604D02*
X0006031Y0016604D01*
X0006798Y0017371D01*
X0006798Y0018906D01*
X0007565Y0019673D01*
X0005263Y0019673D02*
X0004496Y0018906D01*
X0004496Y0017371D01*
X0005263Y0016604D01*
X0008333Y0015069D02*
X0009100Y0014302D01*
X0009100Y0012767D01*
X0008333Y0012000D01*
X0004496Y0012000D01*
X0148980Y0192000D02*
X0148980Y0196604D01*
X0151282Y0196604D01*
X0152050Y0195837D01*
X0152050Y0194302D01*
X0151282Y0193535D01*
X0148980Y0193535D01*
X0150515Y0193535D02*
X0152050Y0192000D01*
X0153584Y0192000D02*
X0156654Y0192000D01*
X0158188Y0192767D02*
X0158955Y0192000D01*
X0160490Y0192000D01*
X0161257Y0192767D01*
X0161257Y0193535D01*
X0160490Y0194302D01*
X0158955Y0194302D01*
X0158188Y0195069D01*
X0158188Y0195837D01*
X0158955Y0196604D01*
X0160490Y0196604D01*
X0161257Y0195837D01*
X0162792Y0196604D02*
X0162792Y0192000D01*
X0165861Y0192000D01*
X0164327Y0194302D02*
X0162792Y0194302D01*
X0162792Y0196604D02*
X0165861Y0196604D01*
X0167396Y0196604D02*
X0170465Y0196604D01*
X0168931Y0196604D02*
X0168931Y0192000D01*
X0156654Y0196604D02*
X0153584Y0196604D01*
X0153584Y0192000D01*
X0153584Y0194302D02*
X0155119Y0194302D01*
X0181996Y0192965D02*
X0181996Y0189896D01*
X0181996Y0188361D02*
X0181996Y0186827D01*
X0181996Y0187594D02*
X0186600Y0187594D01*
X0186600Y0186827D02*
X0186600Y0188361D01*
X0186600Y0191431D02*
X0181996Y0191431D01*
X0181996Y0185292D02*
X0185065Y0182223D01*
X0184298Y0182990D02*
X0186600Y0185292D01*
X0186600Y0182223D02*
X0181996Y0182223D01*
X0182763Y0180688D02*
X0181996Y0179921D01*
X0181996Y0178386D01*
X0182763Y0177619D01*
X0185833Y0177619D01*
X0186600Y0178386D01*
X0186600Y0179921D01*
X0185833Y0180688D01*
X0186600Y0176084D02*
X0186600Y0174550D01*
X0186600Y0175317D02*
X0181996Y0175317D01*
X0181996Y0174550D02*
X0181996Y0176084D01*
X0182763Y0173015D02*
X0184298Y0173015D01*
X0185065Y0172248D01*
X0185065Y0169946D01*
X0186600Y0169946D02*
X0181996Y0169946D01*
X0181996Y0172248D01*
X0182763Y0173015D01*
D114*
X0174300Y0170300D02*
X0174300Y0163300D01*
X0174298Y0163240D01*
X0174293Y0163179D01*
X0174284Y0163120D01*
X0174271Y0163061D01*
X0174255Y0163002D01*
X0174235Y0162945D01*
X0174212Y0162890D01*
X0174185Y0162835D01*
X0174156Y0162783D01*
X0174123Y0162732D01*
X0174087Y0162683D01*
X0174049Y0162637D01*
X0174007Y0162593D01*
X0173963Y0162551D01*
X0173917Y0162513D01*
X0173868Y0162477D01*
X0173817Y0162444D01*
X0173765Y0162415D01*
X0173710Y0162388D01*
X0173655Y0162365D01*
X0173598Y0162345D01*
X0173539Y0162329D01*
X0173480Y0162316D01*
X0173421Y0162307D01*
X0173360Y0162302D01*
X0173300Y0162300D01*
X0171800Y0162300D01*
X0171300Y0162800D01*
X0152300Y0162800D01*
X0151800Y0162300D01*
X0150300Y0162300D01*
X0150240Y0162302D01*
X0150179Y0162307D01*
X0150120Y0162316D01*
X0150061Y0162329D01*
X0150002Y0162345D01*
X0149945Y0162365D01*
X0149890Y0162388D01*
X0149835Y0162415D01*
X0149783Y0162444D01*
X0149732Y0162477D01*
X0149683Y0162513D01*
X0149637Y0162551D01*
X0149593Y0162593D01*
X0149551Y0162637D01*
X0149513Y0162683D01*
X0149477Y0162732D01*
X0149444Y0162783D01*
X0149415Y0162835D01*
X0149388Y0162890D01*
X0149365Y0162945D01*
X0149345Y0163002D01*
X0149329Y0163061D01*
X0149316Y0163120D01*
X0149307Y0163179D01*
X0149302Y0163240D01*
X0149300Y0163300D01*
X0149300Y0170300D01*
X0149302Y0170360D01*
X0149307Y0170421D01*
X0149316Y0170480D01*
X0149329Y0170539D01*
X0149345Y0170598D01*
X0149365Y0170655D01*
X0149388Y0170710D01*
X0149415Y0170765D01*
X0149444Y0170817D01*
X0149477Y0170868D01*
X0149513Y0170917D01*
X0149551Y0170963D01*
X0149593Y0171007D01*
X0149637Y0171049D01*
X0149683Y0171087D01*
X0149732Y0171123D01*
X0149783Y0171156D01*
X0149835Y0171185D01*
X0149890Y0171212D01*
X0149945Y0171235D01*
X0150002Y0171255D01*
X0150061Y0171271D01*
X0150120Y0171284D01*
X0150179Y0171293D01*
X0150240Y0171298D01*
X0150300Y0171300D01*
X0151800Y0171300D01*
X0152300Y0170800D01*
X0171300Y0170800D01*
X0171800Y0171300D01*
X0173300Y0171300D01*
X0173360Y0171298D01*
X0173421Y0171293D01*
X0173480Y0171284D01*
X0173539Y0171271D01*
X0173598Y0171255D01*
X0173655Y0171235D01*
X0173710Y0171212D01*
X0173765Y0171185D01*
X0173817Y0171156D01*
X0173868Y0171123D01*
X0173917Y0171087D01*
X0173963Y0171049D01*
X0174007Y0171007D01*
X0174049Y0170963D01*
X0174087Y0170917D01*
X0174123Y0170868D01*
X0174156Y0170817D01*
X0174185Y0170765D01*
X0174212Y0170710D01*
X0174235Y0170655D01*
X0174255Y0170598D01*
X0174271Y0170539D01*
X0174284Y0170480D01*
X0174293Y0170421D01*
X0174298Y0170360D01*
X0174300Y0170300D01*
X0144300Y0178300D02*
X0144300Y0195300D01*
X0144298Y0195360D01*
X0144293Y0195421D01*
X0144284Y0195480D01*
X0144271Y0195539D01*
X0144255Y0195598D01*
X0144235Y0195655D01*
X0144212Y0195710D01*
X0144185Y0195765D01*
X0144156Y0195817D01*
X0144123Y0195868D01*
X0144087Y0195917D01*
X0144049Y0195963D01*
X0144007Y0196007D01*
X0143963Y0196049D01*
X0143917Y0196087D01*
X0143868Y0196123D01*
X0143817Y0196156D01*
X0143765Y0196185D01*
X0143710Y0196212D01*
X0143655Y0196235D01*
X0143598Y0196255D01*
X0143539Y0196271D01*
X0143480Y0196284D01*
X0143421Y0196293D01*
X0143360Y0196298D01*
X0143300Y0196300D01*
X0135300Y0196300D01*
X0135240Y0196298D01*
X0135179Y0196293D01*
X0135120Y0196284D01*
X0135061Y0196271D01*
X0135002Y0196255D01*
X0134945Y0196235D01*
X0134890Y0196212D01*
X0134835Y0196185D01*
X0134783Y0196156D01*
X0134732Y0196123D01*
X0134683Y0196087D01*
X0134637Y0196049D01*
X0134593Y0196007D01*
X0134551Y0195963D01*
X0134513Y0195917D01*
X0134477Y0195868D01*
X0134444Y0195817D01*
X0134415Y0195765D01*
X0134388Y0195710D01*
X0134365Y0195655D01*
X0134345Y0195598D01*
X0134329Y0195539D01*
X0134316Y0195480D01*
X0134307Y0195421D01*
X0134302Y0195360D01*
X0134300Y0195300D01*
X0134300Y0178300D01*
X0134302Y0178240D01*
X0134307Y0178179D01*
X0134316Y0178120D01*
X0134329Y0178061D01*
X0134345Y0178002D01*
X0134365Y0177945D01*
X0134388Y0177890D01*
X0134415Y0177835D01*
X0134444Y0177783D01*
X0134477Y0177732D01*
X0134513Y0177683D01*
X0134551Y0177637D01*
X0134593Y0177593D01*
X0134637Y0177551D01*
X0134683Y0177513D01*
X0134732Y0177477D01*
X0134783Y0177444D01*
X0134835Y0177415D01*
X0134890Y0177388D01*
X0134945Y0177365D01*
X0135002Y0177345D01*
X0135061Y0177329D01*
X0135120Y0177316D01*
X0135179Y0177307D01*
X0135240Y0177302D01*
X0135300Y0177300D01*
X0143300Y0177300D01*
X0143360Y0177302D01*
X0143421Y0177307D01*
X0143480Y0177316D01*
X0143539Y0177329D01*
X0143598Y0177345D01*
X0143655Y0177365D01*
X0143710Y0177388D01*
X0143765Y0177415D01*
X0143817Y0177444D01*
X0143868Y0177477D01*
X0143917Y0177513D01*
X0143963Y0177551D01*
X0144007Y0177593D01*
X0144049Y0177637D01*
X0144087Y0177683D01*
X0144123Y0177732D01*
X0144156Y0177783D01*
X0144185Y0177835D01*
X0144212Y0177890D01*
X0144235Y0177945D01*
X0144255Y0178002D01*
X0144271Y0178061D01*
X0144284Y0178120D01*
X0144293Y0178179D01*
X0144298Y0178240D01*
X0144300Y0178300D01*
X0139300Y0185300D02*
X0139300Y0185800D01*
X0139300Y0187800D02*
X0139300Y0188300D01*
X0128300Y0190800D02*
X0125300Y0193800D01*
X0113300Y0193800D01*
X0110300Y0190800D01*
X0110300Y0176300D01*
X0110302Y0176224D01*
X0110308Y0176148D01*
X0110317Y0176073D01*
X0110331Y0175998D01*
X0110348Y0175924D01*
X0110369Y0175851D01*
X0110393Y0175779D01*
X0110422Y0175708D01*
X0110453Y0175639D01*
X0110488Y0175572D01*
X0110527Y0175507D01*
X0110569Y0175443D01*
X0110614Y0175382D01*
X0110662Y0175323D01*
X0110713Y0175267D01*
X0110767Y0175213D01*
X0110823Y0175162D01*
X0110882Y0175114D01*
X0110943Y0175069D01*
X0111007Y0175027D01*
X0111072Y0174988D01*
X0111139Y0174953D01*
X0111208Y0174922D01*
X0111279Y0174893D01*
X0111351Y0174869D01*
X0111424Y0174848D01*
X0111498Y0174831D01*
X0111573Y0174817D01*
X0111648Y0174808D01*
X0111724Y0174802D01*
X0111800Y0174800D01*
X0126800Y0174800D01*
X0126876Y0174802D01*
X0126952Y0174808D01*
X0127027Y0174817D01*
X0127102Y0174831D01*
X0127176Y0174848D01*
X0127249Y0174869D01*
X0127321Y0174893D01*
X0127392Y0174922D01*
X0127461Y0174953D01*
X0127528Y0174988D01*
X0127593Y0175027D01*
X0127657Y0175069D01*
X0127718Y0175114D01*
X0127777Y0175162D01*
X0127833Y0175213D01*
X0127887Y0175267D01*
X0127938Y0175323D01*
X0127986Y0175382D01*
X0128031Y0175443D01*
X0128073Y0175507D01*
X0128112Y0175572D01*
X0128147Y0175639D01*
X0128178Y0175708D01*
X0128207Y0175779D01*
X0128231Y0175851D01*
X0128252Y0175924D01*
X0128269Y0175998D01*
X0128283Y0176073D01*
X0128292Y0176148D01*
X0128298Y0176224D01*
X0128300Y0176300D01*
X0128300Y0190800D01*
X0125900Y0191300D02*
X0123400Y0191300D01*
X0124700Y0190000D02*
X0124700Y0192600D01*
X0113300Y0166800D02*
X0105800Y0166800D01*
X0105798Y0166674D01*
X0105792Y0166549D01*
X0105782Y0166424D01*
X0105768Y0166299D01*
X0105751Y0166174D01*
X0105729Y0166050D01*
X0105704Y0165927D01*
X0105674Y0165805D01*
X0105641Y0165684D01*
X0105604Y0165564D01*
X0105564Y0165445D01*
X0105519Y0165328D01*
X0105471Y0165211D01*
X0105419Y0165097D01*
X0105364Y0164984D01*
X0105305Y0164873D01*
X0105243Y0164764D01*
X0105177Y0164657D01*
X0105108Y0164552D01*
X0105036Y0164449D01*
X0104961Y0164348D01*
X0104882Y0164250D01*
X0104800Y0164155D01*
X0104716Y0164062D01*
X0104628Y0163972D01*
X0104538Y0163884D01*
X0104445Y0163800D01*
X0104350Y0163718D01*
X0104252Y0163639D01*
X0104151Y0163564D01*
X0104048Y0163492D01*
X0103943Y0163423D01*
X0103836Y0163357D01*
X0103727Y0163295D01*
X0103616Y0163236D01*
X0103503Y0163181D01*
X0103389Y0163129D01*
X0103272Y0163081D01*
X0103155Y0163036D01*
X0103036Y0162996D01*
X0102916Y0162959D01*
X0102795Y0162926D01*
X0102673Y0162896D01*
X0102550Y0162871D01*
X0102426Y0162849D01*
X0102301Y0162832D01*
X0102176Y0162818D01*
X0102051Y0162808D01*
X0101926Y0162802D01*
X0101800Y0162800D01*
X0101674Y0162802D01*
X0101549Y0162808D01*
X0101424Y0162818D01*
X0101299Y0162832D01*
X0101174Y0162849D01*
X0101050Y0162871D01*
X0100927Y0162896D01*
X0100805Y0162926D01*
X0100684Y0162959D01*
X0100564Y0162996D01*
X0100445Y0163036D01*
X0100328Y0163081D01*
X0100211Y0163129D01*
X0100097Y0163181D01*
X0099984Y0163236D01*
X0099873Y0163295D01*
X0099764Y0163357D01*
X0099657Y0163423D01*
X0099552Y0163492D01*
X0099449Y0163564D01*
X0099348Y0163639D01*
X0099250Y0163718D01*
X0099155Y0163800D01*
X0099062Y0163884D01*
X0098972Y0163972D01*
X0098884Y0164062D01*
X0098800Y0164155D01*
X0098718Y0164250D01*
X0098639Y0164348D01*
X0098564Y0164449D01*
X0098492Y0164552D01*
X0098423Y0164657D01*
X0098357Y0164764D01*
X0098295Y0164873D01*
X0098236Y0164984D01*
X0098181Y0165097D01*
X0098129Y0165211D01*
X0098081Y0165328D01*
X0098036Y0165445D01*
X0097996Y0165564D01*
X0097959Y0165684D01*
X0097926Y0165805D01*
X0097896Y0165927D01*
X0097871Y0166050D01*
X0097849Y0166174D01*
X0097832Y0166299D01*
X0097818Y0166424D01*
X0097808Y0166549D01*
X0097802Y0166674D01*
X0097800Y0166800D01*
X0090300Y0166800D01*
X0090300Y0026800D01*
X0113300Y0026800D01*
X0113300Y0166800D01*
X0121800Y0165300D02*
X0121800Y0148300D01*
X0121802Y0148240D01*
X0121807Y0148179D01*
X0121816Y0148120D01*
X0121829Y0148061D01*
X0121845Y0148002D01*
X0121865Y0147945D01*
X0121888Y0147890D01*
X0121915Y0147835D01*
X0121944Y0147783D01*
X0121977Y0147732D01*
X0122013Y0147683D01*
X0122051Y0147637D01*
X0122093Y0147593D01*
X0122137Y0147551D01*
X0122183Y0147513D01*
X0122232Y0147477D01*
X0122283Y0147444D01*
X0122335Y0147415D01*
X0122390Y0147388D01*
X0122445Y0147365D01*
X0122502Y0147345D01*
X0122561Y0147329D01*
X0122620Y0147316D01*
X0122679Y0147307D01*
X0122740Y0147302D01*
X0122800Y0147300D01*
X0130800Y0147300D01*
X0130860Y0147302D01*
X0130921Y0147307D01*
X0130980Y0147316D01*
X0131039Y0147329D01*
X0131098Y0147345D01*
X0131155Y0147365D01*
X0131210Y0147388D01*
X0131265Y0147415D01*
X0131317Y0147444D01*
X0131368Y0147477D01*
X0131417Y0147513D01*
X0131463Y0147551D01*
X0131507Y0147593D01*
X0131549Y0147637D01*
X0131587Y0147683D01*
X0131623Y0147732D01*
X0131656Y0147783D01*
X0131685Y0147835D01*
X0131712Y0147890D01*
X0131735Y0147945D01*
X0131755Y0148002D01*
X0131771Y0148061D01*
X0131784Y0148120D01*
X0131793Y0148179D01*
X0131798Y0148240D01*
X0131800Y0148300D01*
X0131800Y0165300D01*
X0131798Y0165360D01*
X0131793Y0165421D01*
X0131784Y0165480D01*
X0131771Y0165539D01*
X0131755Y0165598D01*
X0131735Y0165655D01*
X0131712Y0165710D01*
X0131685Y0165765D01*
X0131656Y0165817D01*
X0131623Y0165868D01*
X0131587Y0165917D01*
X0131549Y0165963D01*
X0131507Y0166007D01*
X0131463Y0166049D01*
X0131417Y0166087D01*
X0131368Y0166123D01*
X0131317Y0166156D01*
X0131265Y0166185D01*
X0131210Y0166212D01*
X0131155Y0166235D01*
X0131098Y0166255D01*
X0131039Y0166271D01*
X0130980Y0166284D01*
X0130921Y0166293D01*
X0130860Y0166298D01*
X0130800Y0166300D01*
X0122800Y0166300D01*
X0122740Y0166298D01*
X0122679Y0166293D01*
X0122620Y0166284D01*
X0122561Y0166271D01*
X0122502Y0166255D01*
X0122445Y0166235D01*
X0122390Y0166212D01*
X0122335Y0166185D01*
X0122283Y0166156D01*
X0122232Y0166123D01*
X0122183Y0166087D01*
X0122137Y0166049D01*
X0122093Y0166007D01*
X0122051Y0165963D01*
X0122013Y0165917D01*
X0121977Y0165868D01*
X0121944Y0165817D01*
X0121915Y0165765D01*
X0121888Y0165710D01*
X0121865Y0165655D01*
X0121845Y0165598D01*
X0121829Y0165539D01*
X0121816Y0165480D01*
X0121807Y0165421D01*
X0121802Y0165360D01*
X0121800Y0165300D01*
X0126800Y0158300D02*
X0126800Y0157800D01*
X0126800Y0155800D02*
X0126800Y0155300D01*
X0130300Y0110800D02*
X0127300Y0107800D01*
X0127300Y0095800D01*
X0130300Y0092800D01*
X0144800Y0092800D01*
X0144876Y0092802D01*
X0144952Y0092808D01*
X0145027Y0092817D01*
X0145102Y0092831D01*
X0145176Y0092848D01*
X0145249Y0092869D01*
X0145321Y0092893D01*
X0145392Y0092922D01*
X0145461Y0092953D01*
X0145528Y0092988D01*
X0145593Y0093027D01*
X0145657Y0093069D01*
X0145718Y0093114D01*
X0145777Y0093162D01*
X0145833Y0093213D01*
X0145887Y0093267D01*
X0145938Y0093323D01*
X0145986Y0093382D01*
X0146031Y0093443D01*
X0146073Y0093507D01*
X0146112Y0093572D01*
X0146147Y0093639D01*
X0146178Y0093708D01*
X0146207Y0093779D01*
X0146231Y0093851D01*
X0146252Y0093924D01*
X0146269Y0093998D01*
X0146283Y0094073D01*
X0146292Y0094148D01*
X0146298Y0094224D01*
X0146300Y0094300D01*
X0146300Y0109300D01*
X0146298Y0109376D01*
X0146292Y0109452D01*
X0146283Y0109527D01*
X0146269Y0109602D01*
X0146252Y0109676D01*
X0146231Y0109749D01*
X0146207Y0109821D01*
X0146178Y0109892D01*
X0146147Y0109961D01*
X0146112Y0110028D01*
X0146073Y0110093D01*
X0146031Y0110157D01*
X0145986Y0110218D01*
X0145938Y0110277D01*
X0145887Y0110333D01*
X0145833Y0110387D01*
X0145777Y0110438D01*
X0145718Y0110486D01*
X0145657Y0110531D01*
X0145593Y0110573D01*
X0145528Y0110612D01*
X0145461Y0110647D01*
X0145392Y0110678D01*
X0145321Y0110707D01*
X0145249Y0110731D01*
X0145176Y0110752D01*
X0145102Y0110769D01*
X0145027Y0110783D01*
X0144952Y0110792D01*
X0144876Y0110798D01*
X0144800Y0110800D01*
X0130300Y0110800D01*
X0129800Y0108400D02*
X0129800Y0105900D01*
X0131100Y0107200D02*
X0128500Y0107200D01*
X0080800Y0046300D02*
X0072800Y0046300D01*
X0072740Y0046298D01*
X0072679Y0046293D01*
X0072620Y0046284D01*
X0072561Y0046271D01*
X0072502Y0046255D01*
X0072445Y0046235D01*
X0072390Y0046212D01*
X0072335Y0046185D01*
X0072283Y0046156D01*
X0072232Y0046123D01*
X0072183Y0046087D01*
X0072137Y0046049D01*
X0072093Y0046007D01*
X0072051Y0045963D01*
X0072013Y0045917D01*
X0071977Y0045868D01*
X0071944Y0045817D01*
X0071915Y0045765D01*
X0071888Y0045710D01*
X0071865Y0045655D01*
X0071845Y0045598D01*
X0071829Y0045539D01*
X0071816Y0045480D01*
X0071807Y0045421D01*
X0071802Y0045360D01*
X0071800Y0045300D01*
X0071800Y0028300D01*
X0071802Y0028240D01*
X0071807Y0028179D01*
X0071816Y0028120D01*
X0071829Y0028061D01*
X0071845Y0028002D01*
X0071865Y0027945D01*
X0071888Y0027890D01*
X0071915Y0027835D01*
X0071944Y0027783D01*
X0071977Y0027732D01*
X0072013Y0027683D01*
X0072051Y0027637D01*
X0072093Y0027593D01*
X0072137Y0027551D01*
X0072183Y0027513D01*
X0072232Y0027477D01*
X0072283Y0027444D01*
X0072335Y0027415D01*
X0072390Y0027388D01*
X0072445Y0027365D01*
X0072502Y0027345D01*
X0072561Y0027329D01*
X0072620Y0027316D01*
X0072679Y0027307D01*
X0072740Y0027302D01*
X0072800Y0027300D01*
X0080800Y0027300D01*
X0080860Y0027302D01*
X0080921Y0027307D01*
X0080980Y0027316D01*
X0081039Y0027329D01*
X0081098Y0027345D01*
X0081155Y0027365D01*
X0081210Y0027388D01*
X0081265Y0027415D01*
X0081317Y0027444D01*
X0081368Y0027477D01*
X0081417Y0027513D01*
X0081463Y0027551D01*
X0081507Y0027593D01*
X0081549Y0027637D01*
X0081587Y0027683D01*
X0081623Y0027732D01*
X0081656Y0027783D01*
X0081685Y0027835D01*
X0081712Y0027890D01*
X0081735Y0027945D01*
X0081755Y0028002D01*
X0081771Y0028061D01*
X0081784Y0028120D01*
X0081793Y0028179D01*
X0081798Y0028240D01*
X0081800Y0028300D01*
X0081800Y0045300D01*
X0081798Y0045360D01*
X0081793Y0045421D01*
X0081784Y0045480D01*
X0081771Y0045539D01*
X0081755Y0045598D01*
X0081735Y0045655D01*
X0081712Y0045710D01*
X0081685Y0045765D01*
X0081656Y0045817D01*
X0081623Y0045868D01*
X0081587Y0045917D01*
X0081549Y0045963D01*
X0081507Y0046007D01*
X0081463Y0046049D01*
X0081417Y0046087D01*
X0081368Y0046123D01*
X0081317Y0046156D01*
X0081265Y0046185D01*
X0081210Y0046212D01*
X0081155Y0046235D01*
X0081098Y0046255D01*
X0081039Y0046271D01*
X0080980Y0046284D01*
X0080921Y0046293D01*
X0080860Y0046298D01*
X0080800Y0046300D01*
X0076800Y0038300D02*
X0076800Y0037800D01*
X0076800Y0035800D02*
X0076800Y0035300D01*
X0056300Y0041800D02*
X0055800Y0041300D01*
X0055800Y0022300D01*
X0056300Y0021800D01*
X0056300Y0020300D01*
X0056298Y0020240D01*
X0056293Y0020179D01*
X0056284Y0020120D01*
X0056271Y0020061D01*
X0056255Y0020002D01*
X0056235Y0019945D01*
X0056212Y0019890D01*
X0056185Y0019835D01*
X0056156Y0019783D01*
X0056123Y0019732D01*
X0056087Y0019683D01*
X0056049Y0019637D01*
X0056007Y0019593D01*
X0055963Y0019551D01*
X0055917Y0019513D01*
X0055868Y0019477D01*
X0055817Y0019444D01*
X0055765Y0019415D01*
X0055710Y0019388D01*
X0055655Y0019365D01*
X0055598Y0019345D01*
X0055539Y0019329D01*
X0055480Y0019316D01*
X0055421Y0019307D01*
X0055360Y0019302D01*
X0055300Y0019300D01*
X0048300Y0019300D01*
X0048240Y0019302D01*
X0048179Y0019307D01*
X0048120Y0019316D01*
X0048061Y0019329D01*
X0048002Y0019345D01*
X0047945Y0019365D01*
X0047890Y0019388D01*
X0047835Y0019415D01*
X0047783Y0019444D01*
X0047732Y0019477D01*
X0047683Y0019513D01*
X0047637Y0019551D01*
X0047593Y0019593D01*
X0047551Y0019637D01*
X0047513Y0019683D01*
X0047477Y0019732D01*
X0047444Y0019783D01*
X0047415Y0019835D01*
X0047388Y0019890D01*
X0047365Y0019945D01*
X0047345Y0020002D01*
X0047329Y0020061D01*
X0047316Y0020120D01*
X0047307Y0020179D01*
X0047302Y0020240D01*
X0047300Y0020300D01*
X0047300Y0021800D01*
X0047800Y0022300D01*
X0047800Y0041300D01*
X0047300Y0041800D01*
X0047300Y0043300D01*
X0047302Y0043360D01*
X0047307Y0043421D01*
X0047316Y0043480D01*
X0047329Y0043539D01*
X0047345Y0043598D01*
X0047365Y0043655D01*
X0047388Y0043710D01*
X0047415Y0043765D01*
X0047444Y0043817D01*
X0047477Y0043868D01*
X0047513Y0043917D01*
X0047551Y0043963D01*
X0047593Y0044007D01*
X0047637Y0044049D01*
X0047683Y0044087D01*
X0047732Y0044123D01*
X0047783Y0044156D01*
X0047835Y0044185D01*
X0047890Y0044212D01*
X0047945Y0044235D01*
X0048002Y0044255D01*
X0048061Y0044271D01*
X0048120Y0044284D01*
X0048179Y0044293D01*
X0048240Y0044298D01*
X0048300Y0044300D01*
X0055300Y0044300D01*
X0055360Y0044298D01*
X0055421Y0044293D01*
X0055480Y0044284D01*
X0055539Y0044271D01*
X0055598Y0044255D01*
X0055655Y0044235D01*
X0055710Y0044212D01*
X0055765Y0044185D01*
X0055817Y0044156D01*
X0055868Y0044123D01*
X0055917Y0044087D01*
X0055963Y0044049D01*
X0056007Y0044007D01*
X0056049Y0043963D01*
X0056087Y0043917D01*
X0056123Y0043868D01*
X0056156Y0043817D01*
X0056185Y0043765D01*
X0056212Y0043710D01*
X0056235Y0043655D01*
X0056255Y0043598D01*
X0056271Y0043539D01*
X0056284Y0043480D01*
X0056293Y0043421D01*
X0056298Y0043360D01*
X0056300Y0043300D01*
X0056300Y0041800D01*
X0046300Y0041800D02*
X0045800Y0041300D01*
X0045800Y0022300D01*
X0046300Y0021800D01*
X0046300Y0020300D01*
X0046298Y0020240D01*
X0046293Y0020179D01*
X0046284Y0020120D01*
X0046271Y0020061D01*
X0046255Y0020002D01*
X0046235Y0019945D01*
X0046212Y0019890D01*
X0046185Y0019835D01*
X0046156Y0019783D01*
X0046123Y0019732D01*
X0046087Y0019683D01*
X0046049Y0019637D01*
X0046007Y0019593D01*
X0045963Y0019551D01*
X0045917Y0019513D01*
X0045868Y0019477D01*
X0045817Y0019444D01*
X0045765Y0019415D01*
X0045710Y0019388D01*
X0045655Y0019365D01*
X0045598Y0019345D01*
X0045539Y0019329D01*
X0045480Y0019316D01*
X0045421Y0019307D01*
X0045360Y0019302D01*
X0045300Y0019300D01*
X0038300Y0019300D01*
X0038240Y0019302D01*
X0038179Y0019307D01*
X0038120Y0019316D01*
X0038061Y0019329D01*
X0038002Y0019345D01*
X0037945Y0019365D01*
X0037890Y0019388D01*
X0037835Y0019415D01*
X0037783Y0019444D01*
X0037732Y0019477D01*
X0037683Y0019513D01*
X0037637Y0019551D01*
X0037593Y0019593D01*
X0037551Y0019637D01*
X0037513Y0019683D01*
X0037477Y0019732D01*
X0037444Y0019783D01*
X0037415Y0019835D01*
X0037388Y0019890D01*
X0037365Y0019945D01*
X0037345Y0020002D01*
X0037329Y0020061D01*
X0037316Y0020120D01*
X0037307Y0020179D01*
X0037302Y0020240D01*
X0037300Y0020300D01*
X0037300Y0021800D01*
X0037800Y0022300D01*
X0037800Y0041300D01*
X0037300Y0041800D01*
X0037300Y0043300D01*
X0037302Y0043360D01*
X0037307Y0043421D01*
X0037316Y0043480D01*
X0037329Y0043539D01*
X0037345Y0043598D01*
X0037365Y0043655D01*
X0037388Y0043710D01*
X0037415Y0043765D01*
X0037444Y0043817D01*
X0037477Y0043868D01*
X0037513Y0043917D01*
X0037551Y0043963D01*
X0037593Y0044007D01*
X0037637Y0044049D01*
X0037683Y0044087D01*
X0037732Y0044123D01*
X0037783Y0044156D01*
X0037835Y0044185D01*
X0037890Y0044212D01*
X0037945Y0044235D01*
X0038002Y0044255D01*
X0038061Y0044271D01*
X0038120Y0044284D01*
X0038179Y0044293D01*
X0038240Y0044298D01*
X0038300Y0044300D01*
X0045300Y0044300D01*
X0045360Y0044298D01*
X0045421Y0044293D01*
X0045480Y0044284D01*
X0045539Y0044271D01*
X0045598Y0044255D01*
X0045655Y0044235D01*
X0045710Y0044212D01*
X0045765Y0044185D01*
X0045817Y0044156D01*
X0045868Y0044123D01*
X0045917Y0044087D01*
X0045963Y0044049D01*
X0046007Y0044007D01*
X0046049Y0043963D01*
X0046087Y0043917D01*
X0046123Y0043868D01*
X0046156Y0043817D01*
X0046185Y0043765D01*
X0046212Y0043710D01*
X0046235Y0043655D01*
X0046255Y0043598D01*
X0046271Y0043539D01*
X0046284Y0043480D01*
X0046293Y0043421D01*
X0046298Y0043360D01*
X0046300Y0043300D01*
X0046300Y0041800D01*
X0016800Y0040800D02*
X0016648Y0040802D01*
X0016497Y0040808D01*
X0016346Y0040817D01*
X0016194Y0040831D01*
X0016044Y0040848D01*
X0015894Y0040869D01*
X0015744Y0040894D01*
X0015595Y0040922D01*
X0015447Y0040955D01*
X0015300Y0040991D01*
X0015153Y0041030D01*
X0015008Y0041074D01*
X0014864Y0041121D01*
X0014721Y0041172D01*
X0014580Y0041226D01*
X0014439Y0041284D01*
X0014301Y0041345D01*
X0014164Y0041410D01*
X0014028Y0041479D01*
X0013895Y0041550D01*
X0013763Y0041625D01*
X0013633Y0041704D01*
X0013506Y0041785D01*
X0013380Y0041870D01*
X0013256Y0041958D01*
X0013135Y0042049D01*
X0013016Y0042143D01*
X0012900Y0042241D01*
X0012786Y0042341D01*
X0012674Y0042443D01*
X0012566Y0042549D01*
X0012460Y0042657D01*
X0012356Y0042768D01*
X0012256Y0042882D01*
X0012158Y0042998D01*
X0012064Y0043117D01*
X0016800Y0052800D02*
X0016954Y0052798D01*
X0017108Y0052792D01*
X0017262Y0052782D01*
X0017416Y0052768D01*
X0017569Y0052751D01*
X0017721Y0052729D01*
X0017873Y0052703D01*
X0018025Y0052674D01*
X0018175Y0052640D01*
X0018325Y0052603D01*
X0018473Y0052562D01*
X0018621Y0052517D01*
X0018767Y0052468D01*
X0018912Y0052416D01*
X0019055Y0052360D01*
X0019198Y0052300D01*
X0019338Y0052237D01*
X0019477Y0052170D01*
X0019614Y0052099D01*
X0019749Y0052025D01*
X0019882Y0051948D01*
X0020014Y0051867D01*
X0020143Y0051783D01*
X0020270Y0051695D01*
X0020394Y0051604D01*
X0020516Y0051511D01*
X0020636Y0051413D01*
X0020753Y0051313D01*
X0020868Y0051210D01*
X0020980Y0051104D01*
X0021089Y0050996D01*
X0021195Y0050884D01*
X0021299Y0050770D01*
X0021399Y0050653D01*
X0021497Y0050534D01*
X0021591Y0050412D01*
X0021682Y0050287D01*
X0016800Y0052800D02*
X0016650Y0052798D01*
X0016499Y0052792D01*
X0016349Y0052783D01*
X0016200Y0052770D01*
X0016050Y0052753D01*
X0015901Y0052732D01*
X0015753Y0052708D01*
X0015605Y0052680D01*
X0015458Y0052648D01*
X0015312Y0052613D01*
X0015167Y0052573D01*
X0015023Y0052531D01*
X0014880Y0052484D01*
X0014738Y0052434D01*
X0014597Y0052381D01*
X0014458Y0052324D01*
X0014320Y0052264D01*
X0014184Y0052200D01*
X0014050Y0052133D01*
X0013917Y0052062D01*
X0013786Y0051988D01*
X0013657Y0051911D01*
X0013530Y0051830D01*
X0013405Y0051747D01*
X0013282Y0051660D01*
X0013161Y0051571D01*
X0013043Y0051478D01*
X0012927Y0051382D01*
X0012813Y0051284D01*
X0012702Y0051183D01*
X0012593Y0051078D01*
X0012488Y0050972D01*
X0012384Y0050862D01*
X0012284Y0050750D01*
X0012186Y0050636D01*
X0012092Y0050519D01*
X0012000Y0050400D01*
X0016800Y0040800D02*
X0016952Y0040802D01*
X0017103Y0040808D01*
X0017254Y0040817D01*
X0017406Y0040831D01*
X0017556Y0040848D01*
X0017706Y0040869D01*
X0017856Y0040894D01*
X0018005Y0040922D01*
X0018153Y0040955D01*
X0018300Y0040991D01*
X0018447Y0041030D01*
X0018592Y0041074D01*
X0018736Y0041121D01*
X0018879Y0041172D01*
X0019020Y0041226D01*
X0019161Y0041284D01*
X0019299Y0041345D01*
X0019436Y0041410D01*
X0019572Y0041479D01*
X0019705Y0041550D01*
X0019837Y0041625D01*
X0019967Y0041704D01*
X0020094Y0041785D01*
X0020220Y0041870D01*
X0020344Y0041958D01*
X0020465Y0042049D01*
X0020584Y0042143D01*
X0020700Y0042241D01*
X0020814Y0042341D01*
X0020926Y0042443D01*
X0021034Y0042549D01*
X0021140Y0042657D01*
X0021244Y0042768D01*
X0021344Y0042882D01*
X0021442Y0042998D01*
X0021536Y0043117D01*
X0096800Y0022800D02*
X0096954Y0022798D01*
X0097108Y0022792D01*
X0097262Y0022782D01*
X0097416Y0022768D01*
X0097569Y0022751D01*
X0097721Y0022729D01*
X0097873Y0022703D01*
X0098025Y0022674D01*
X0098175Y0022640D01*
X0098325Y0022603D01*
X0098473Y0022562D01*
X0098621Y0022517D01*
X0098767Y0022468D01*
X0098912Y0022416D01*
X0099055Y0022360D01*
X0099198Y0022300D01*
X0099338Y0022237D01*
X0099477Y0022170D01*
X0099614Y0022099D01*
X0099749Y0022025D01*
X0099882Y0021948D01*
X0100014Y0021867D01*
X0100143Y0021783D01*
X0100270Y0021695D01*
X0100394Y0021604D01*
X0100516Y0021511D01*
X0100636Y0021413D01*
X0100753Y0021313D01*
X0100868Y0021210D01*
X0100980Y0021104D01*
X0101089Y0020996D01*
X0101195Y0020884D01*
X0101299Y0020770D01*
X0101399Y0020653D01*
X0101497Y0020534D01*
X0101591Y0020412D01*
X0101682Y0020287D01*
X0096800Y0010800D02*
X0096648Y0010802D01*
X0096497Y0010808D01*
X0096346Y0010817D01*
X0096194Y0010831D01*
X0096044Y0010848D01*
X0095894Y0010869D01*
X0095744Y0010894D01*
X0095595Y0010922D01*
X0095447Y0010955D01*
X0095300Y0010991D01*
X0095153Y0011030D01*
X0095008Y0011074D01*
X0094864Y0011121D01*
X0094721Y0011172D01*
X0094580Y0011226D01*
X0094439Y0011284D01*
X0094301Y0011345D01*
X0094164Y0011410D01*
X0094028Y0011479D01*
X0093895Y0011550D01*
X0093763Y0011625D01*
X0093633Y0011704D01*
X0093506Y0011785D01*
X0093380Y0011870D01*
X0093256Y0011958D01*
X0093135Y0012049D01*
X0093016Y0012143D01*
X0092900Y0012241D01*
X0092786Y0012341D01*
X0092674Y0012443D01*
X0092566Y0012549D01*
X0092460Y0012657D01*
X0092356Y0012768D01*
X0092256Y0012882D01*
X0092158Y0012998D01*
X0092064Y0013117D01*
X0096800Y0010800D02*
X0096952Y0010802D01*
X0097103Y0010808D01*
X0097254Y0010817D01*
X0097406Y0010831D01*
X0097556Y0010848D01*
X0097706Y0010869D01*
X0097856Y0010894D01*
X0098005Y0010922D01*
X0098153Y0010955D01*
X0098300Y0010991D01*
X0098447Y0011030D01*
X0098592Y0011074D01*
X0098736Y0011121D01*
X0098879Y0011172D01*
X0099020Y0011226D01*
X0099161Y0011284D01*
X0099299Y0011345D01*
X0099436Y0011410D01*
X0099572Y0011479D01*
X0099705Y0011550D01*
X0099837Y0011625D01*
X0099967Y0011704D01*
X0100094Y0011785D01*
X0100220Y0011870D01*
X0100344Y0011958D01*
X0100465Y0012049D01*
X0100584Y0012143D01*
X0100700Y0012241D01*
X0100814Y0012341D01*
X0100926Y0012443D01*
X0101034Y0012549D01*
X0101140Y0012657D01*
X0101244Y0012768D01*
X0101344Y0012882D01*
X0101442Y0012998D01*
X0101536Y0013117D01*
X0096800Y0022800D02*
X0096650Y0022798D01*
X0096499Y0022792D01*
X0096349Y0022783D01*
X0096200Y0022770D01*
X0096050Y0022753D01*
X0095901Y0022732D01*
X0095753Y0022708D01*
X0095605Y0022680D01*
X0095458Y0022648D01*
X0095312Y0022613D01*
X0095167Y0022573D01*
X0095023Y0022531D01*
X0094880Y0022484D01*
X0094738Y0022434D01*
X0094597Y0022381D01*
X0094458Y0022324D01*
X0094320Y0022264D01*
X0094184Y0022200D01*
X0094050Y0022133D01*
X0093917Y0022062D01*
X0093786Y0021988D01*
X0093657Y0021911D01*
X0093530Y0021830D01*
X0093405Y0021747D01*
X0093282Y0021660D01*
X0093161Y0021571D01*
X0093043Y0021478D01*
X0092927Y0021382D01*
X0092813Y0021284D01*
X0092702Y0021183D01*
X0092593Y0021078D01*
X0092488Y0020972D01*
X0092384Y0020862D01*
X0092284Y0020750D01*
X0092186Y0020636D01*
X0092092Y0020519D01*
X0092000Y0020400D01*
X0119300Y0020300D02*
X0119300Y0013300D01*
X0119302Y0013240D01*
X0119307Y0013179D01*
X0119316Y0013120D01*
X0119329Y0013061D01*
X0119345Y0013002D01*
X0119365Y0012945D01*
X0119388Y0012890D01*
X0119415Y0012835D01*
X0119444Y0012783D01*
X0119477Y0012732D01*
X0119513Y0012683D01*
X0119551Y0012637D01*
X0119593Y0012593D01*
X0119637Y0012551D01*
X0119683Y0012513D01*
X0119732Y0012477D01*
X0119783Y0012444D01*
X0119835Y0012415D01*
X0119890Y0012388D01*
X0119945Y0012365D01*
X0120002Y0012345D01*
X0120061Y0012329D01*
X0120120Y0012316D01*
X0120179Y0012307D01*
X0120240Y0012302D01*
X0120300Y0012300D01*
X0121800Y0012300D01*
X0122300Y0012800D01*
X0141300Y0012800D01*
X0141800Y0012300D01*
X0143300Y0012300D01*
X0143360Y0012302D01*
X0143421Y0012307D01*
X0143480Y0012316D01*
X0143539Y0012329D01*
X0143598Y0012345D01*
X0143655Y0012365D01*
X0143710Y0012388D01*
X0143765Y0012415D01*
X0143817Y0012444D01*
X0143868Y0012477D01*
X0143917Y0012513D01*
X0143963Y0012551D01*
X0144007Y0012593D01*
X0144049Y0012637D01*
X0144087Y0012683D01*
X0144123Y0012732D01*
X0144156Y0012783D01*
X0144185Y0012835D01*
X0144212Y0012890D01*
X0144235Y0012945D01*
X0144255Y0013002D01*
X0144271Y0013061D01*
X0144284Y0013120D01*
X0144293Y0013179D01*
X0144298Y0013240D01*
X0144300Y0013300D01*
X0144300Y0020300D01*
X0144298Y0020360D01*
X0144293Y0020421D01*
X0144284Y0020480D01*
X0144271Y0020539D01*
X0144255Y0020598D01*
X0144235Y0020655D01*
X0144212Y0020710D01*
X0144185Y0020765D01*
X0144156Y0020817D01*
X0144123Y0020868D01*
X0144087Y0020917D01*
X0144049Y0020963D01*
X0144007Y0021007D01*
X0143963Y0021049D01*
X0143917Y0021087D01*
X0143868Y0021123D01*
X0143817Y0021156D01*
X0143765Y0021185D01*
X0143710Y0021212D01*
X0143655Y0021235D01*
X0143598Y0021255D01*
X0143539Y0021271D01*
X0143480Y0021284D01*
X0143421Y0021293D01*
X0143360Y0021298D01*
X0143300Y0021300D01*
X0141800Y0021300D01*
X0141300Y0020800D01*
X0122300Y0020800D01*
X0121800Y0021300D01*
X0120300Y0021300D01*
X0120240Y0021298D01*
X0120179Y0021293D01*
X0120120Y0021284D01*
X0120061Y0021271D01*
X0120002Y0021255D01*
X0119945Y0021235D01*
X0119890Y0021212D01*
X0119835Y0021185D01*
X0119783Y0021156D01*
X0119732Y0021123D01*
X0119683Y0021087D01*
X0119637Y0021049D01*
X0119593Y0021007D01*
X0119551Y0020963D01*
X0119513Y0020917D01*
X0119477Y0020868D01*
X0119444Y0020817D01*
X0119415Y0020765D01*
X0119388Y0020710D01*
X0119365Y0020655D01*
X0119345Y0020598D01*
X0119329Y0020539D01*
X0119316Y0020480D01*
X0119307Y0020421D01*
X0119302Y0020360D01*
X0119300Y0020300D01*
X0075300Y0166800D02*
X0058300Y0166800D01*
X0058240Y0166802D01*
X0058179Y0166807D01*
X0058120Y0166816D01*
X0058061Y0166829D01*
X0058002Y0166845D01*
X0057945Y0166865D01*
X0057890Y0166888D01*
X0057835Y0166915D01*
X0057783Y0166944D01*
X0057732Y0166977D01*
X0057683Y0167013D01*
X0057637Y0167051D01*
X0057593Y0167093D01*
X0057551Y0167137D01*
X0057513Y0167183D01*
X0057477Y0167232D01*
X0057444Y0167283D01*
X0057415Y0167335D01*
X0057388Y0167390D01*
X0057365Y0167445D01*
X0057345Y0167502D01*
X0057329Y0167561D01*
X0057316Y0167620D01*
X0057307Y0167679D01*
X0057302Y0167740D01*
X0057300Y0167800D01*
X0057300Y0175800D01*
X0057302Y0175860D01*
X0057307Y0175921D01*
X0057316Y0175980D01*
X0057329Y0176039D01*
X0057345Y0176098D01*
X0057365Y0176155D01*
X0057388Y0176210D01*
X0057415Y0176265D01*
X0057444Y0176317D01*
X0057477Y0176368D01*
X0057513Y0176417D01*
X0057551Y0176463D01*
X0057593Y0176507D01*
X0057637Y0176549D01*
X0057683Y0176587D01*
X0057732Y0176623D01*
X0057783Y0176656D01*
X0057835Y0176685D01*
X0057890Y0176712D01*
X0057945Y0176735D01*
X0058002Y0176755D01*
X0058061Y0176771D01*
X0058120Y0176784D01*
X0058179Y0176793D01*
X0058240Y0176798D01*
X0058300Y0176800D01*
X0075300Y0176800D01*
X0075360Y0176798D01*
X0075421Y0176793D01*
X0075480Y0176784D01*
X0075539Y0176771D01*
X0075598Y0176755D01*
X0075655Y0176735D01*
X0075710Y0176712D01*
X0075765Y0176685D01*
X0075817Y0176656D01*
X0075868Y0176623D01*
X0075917Y0176587D01*
X0075963Y0176549D01*
X0076007Y0176507D01*
X0076049Y0176463D01*
X0076087Y0176417D01*
X0076123Y0176368D01*
X0076156Y0176317D01*
X0076185Y0176265D01*
X0076212Y0176210D01*
X0076235Y0176155D01*
X0076255Y0176098D01*
X0076271Y0176039D01*
X0076284Y0175980D01*
X0076293Y0175921D01*
X0076298Y0175860D01*
X0076300Y0175800D01*
X0076300Y0167800D01*
X0076298Y0167740D01*
X0076293Y0167679D01*
X0076284Y0167620D01*
X0076271Y0167561D01*
X0076255Y0167502D01*
X0076235Y0167445D01*
X0076212Y0167390D01*
X0076185Y0167335D01*
X0076156Y0167283D01*
X0076123Y0167232D01*
X0076087Y0167183D01*
X0076049Y0167137D01*
X0076007Y0167093D01*
X0075963Y0167051D01*
X0075917Y0167013D01*
X0075868Y0166977D01*
X0075817Y0166944D01*
X0075765Y0166915D01*
X0075710Y0166888D01*
X0075655Y0166865D01*
X0075598Y0166845D01*
X0075539Y0166829D01*
X0075480Y0166816D01*
X0075421Y0166807D01*
X0075360Y0166802D01*
X0075300Y0166800D01*
X0068300Y0171800D02*
X0067800Y0171800D01*
X0065800Y0171800D02*
X0065300Y0171800D01*
D115*
X0065800Y0171800D02*
X0065800Y0174800D01*
X0067800Y0174800D02*
X0067800Y0171800D01*
X0067800Y0168800D01*
X0065800Y0168800D02*
X0065800Y0171800D01*
X0123800Y0157800D02*
X0126800Y0157800D01*
X0129800Y0157800D01*
X0129800Y0155800D02*
X0126800Y0155800D01*
X0123800Y0155800D01*
X0136300Y0185800D02*
X0139300Y0185800D01*
X0142300Y0185800D01*
X0142300Y0187800D02*
X0139300Y0187800D01*
X0136300Y0187800D01*
X0016800Y0054800D02*
X0016608Y0054798D01*
X0016416Y0054791D01*
X0016224Y0054779D01*
X0016032Y0054763D01*
X0015841Y0054742D01*
X0015651Y0054717D01*
X0015461Y0054687D01*
X0015272Y0054653D01*
X0015084Y0054614D01*
X0014897Y0054570D01*
X0014711Y0054522D01*
X0014526Y0054470D01*
X0014342Y0054413D01*
X0014160Y0054352D01*
X0013980Y0054286D01*
X0013801Y0054216D01*
X0013623Y0054142D01*
X0013448Y0054064D01*
X0013274Y0053981D01*
X0013103Y0053894D01*
X0012934Y0053804D01*
X0012767Y0053709D01*
X0012602Y0053610D01*
X0012439Y0053507D01*
X0012280Y0053400D01*
X0012122Y0053290D01*
X0011968Y0053176D01*
X0011816Y0053058D01*
X0011667Y0052936D01*
X0011521Y0052811D01*
X0011379Y0052683D01*
X0011239Y0052551D01*
X0011102Y0052416D01*
X0010969Y0052277D01*
X0010839Y0052136D01*
X0010713Y0051991D01*
X0010590Y0051843D01*
X0010471Y0051693D01*
X0010355Y0051539D01*
X0010243Y0051383D01*
X0010135Y0051224D01*
X0010030Y0051063D01*
X0009930Y0050899D01*
X0009834Y0050733D01*
X0009741Y0050565D01*
X0009854Y0042831D02*
X0009953Y0042662D01*
X0010057Y0042496D01*
X0010164Y0042332D01*
X0010275Y0042171D01*
X0010390Y0042013D01*
X0010509Y0041858D01*
X0010632Y0041705D01*
X0010758Y0041556D01*
X0010888Y0041410D01*
X0011022Y0041267D01*
X0011159Y0041127D01*
X0011299Y0040991D01*
X0011443Y0040858D01*
X0011590Y0040729D01*
X0011740Y0040603D01*
X0011893Y0040482D01*
X0012049Y0040363D01*
X0012208Y0040249D01*
X0012369Y0040139D01*
X0012534Y0040033D01*
X0012700Y0039930D01*
X0012870Y0039832D01*
X0013041Y0039738D01*
X0013215Y0039648D01*
X0013391Y0039563D01*
X0013569Y0039481D01*
X0013749Y0039405D01*
X0013931Y0039332D01*
X0014114Y0039264D01*
X0014299Y0039201D01*
X0014486Y0039142D01*
X0014674Y0039088D01*
X0014863Y0039038D01*
X0015053Y0038993D01*
X0015245Y0038953D01*
X0015437Y0038917D01*
X0015630Y0038886D01*
X0015824Y0038860D01*
X0016019Y0038838D01*
X0016214Y0038822D01*
X0016409Y0038810D01*
X0016605Y0038802D01*
X0016800Y0038800D01*
X0016993Y0038802D01*
X0017186Y0038809D01*
X0017378Y0038821D01*
X0017571Y0038837D01*
X0017763Y0038858D01*
X0017954Y0038884D01*
X0018144Y0038914D01*
X0018334Y0038949D01*
X0018523Y0038988D01*
X0018711Y0039032D01*
X0018898Y0039080D01*
X0019084Y0039133D01*
X0019268Y0039190D01*
X0019451Y0039252D01*
X0019632Y0039318D01*
X0019812Y0039389D01*
X0019990Y0039463D01*
X0020166Y0039542D01*
X0020340Y0039626D01*
X0020512Y0039713D01*
X0020682Y0039805D01*
X0020849Y0039901D01*
X0021015Y0040000D01*
X0021178Y0040104D01*
X0021338Y0040211D01*
X0021495Y0040323D01*
X0021650Y0040438D01*
X0021802Y0040557D01*
X0021951Y0040679D01*
X0022098Y0040805D01*
X0022241Y0040935D01*
X0022381Y0041068D01*
X0022517Y0041204D01*
X0022651Y0041344D01*
X0022780Y0041486D01*
X0022907Y0041632D01*
X0022946Y0051922D02*
X0022819Y0052070D01*
X0022689Y0052215D01*
X0022556Y0052356D01*
X0022419Y0052495D01*
X0022279Y0052630D01*
X0022135Y0052761D01*
X0021988Y0052889D01*
X0021839Y0053014D01*
X0021686Y0053135D01*
X0021531Y0053252D01*
X0021372Y0053365D01*
X0021211Y0053474D01*
X0021047Y0053579D01*
X0020881Y0053681D01*
X0020712Y0053778D01*
X0020542Y0053871D01*
X0020368Y0053960D01*
X0020193Y0054045D01*
X0020016Y0054125D01*
X0019837Y0054201D01*
X0019656Y0054273D01*
X0019473Y0054340D01*
X0019289Y0054403D01*
X0019103Y0054461D01*
X0018916Y0054515D01*
X0018728Y0054564D01*
X0018538Y0054609D01*
X0018348Y0054649D01*
X0018156Y0054684D01*
X0017964Y0054715D01*
X0017771Y0054741D01*
X0017577Y0054762D01*
X0017383Y0054779D01*
X0017189Y0054791D01*
X0016995Y0054798D01*
X0016800Y0054800D01*
X0073800Y0037800D02*
X0076800Y0037800D01*
X0079800Y0037800D01*
X0079800Y0035800D02*
X0076800Y0035800D01*
X0073800Y0035800D01*
X0089854Y0012831D02*
X0089953Y0012662D01*
X0090057Y0012496D01*
X0090164Y0012332D01*
X0090275Y0012171D01*
X0090390Y0012013D01*
X0090509Y0011858D01*
X0090632Y0011705D01*
X0090758Y0011556D01*
X0090888Y0011410D01*
X0091022Y0011267D01*
X0091159Y0011127D01*
X0091299Y0010991D01*
X0091443Y0010858D01*
X0091590Y0010729D01*
X0091740Y0010603D01*
X0091893Y0010482D01*
X0092049Y0010363D01*
X0092208Y0010249D01*
X0092369Y0010139D01*
X0092534Y0010033D01*
X0092700Y0009930D01*
X0092870Y0009832D01*
X0093041Y0009738D01*
X0093215Y0009648D01*
X0093391Y0009563D01*
X0093569Y0009481D01*
X0093749Y0009405D01*
X0093931Y0009332D01*
X0094114Y0009264D01*
X0094299Y0009201D01*
X0094486Y0009142D01*
X0094674Y0009088D01*
X0094863Y0009038D01*
X0095053Y0008993D01*
X0095245Y0008953D01*
X0095437Y0008917D01*
X0095630Y0008886D01*
X0095824Y0008860D01*
X0096019Y0008838D01*
X0096214Y0008822D01*
X0096409Y0008810D01*
X0096605Y0008802D01*
X0096800Y0008800D01*
X0089741Y0020565D02*
X0089834Y0020733D01*
X0089930Y0020899D01*
X0090030Y0021063D01*
X0090135Y0021224D01*
X0090243Y0021383D01*
X0090355Y0021539D01*
X0090471Y0021693D01*
X0090590Y0021843D01*
X0090713Y0021991D01*
X0090839Y0022136D01*
X0090969Y0022277D01*
X0091102Y0022416D01*
X0091239Y0022551D01*
X0091379Y0022683D01*
X0091521Y0022811D01*
X0091667Y0022936D01*
X0091816Y0023058D01*
X0091968Y0023176D01*
X0092122Y0023290D01*
X0092280Y0023400D01*
X0092439Y0023507D01*
X0092602Y0023610D01*
X0092767Y0023709D01*
X0092934Y0023804D01*
X0093103Y0023894D01*
X0093274Y0023981D01*
X0093448Y0024064D01*
X0093623Y0024142D01*
X0093801Y0024216D01*
X0093980Y0024286D01*
X0094160Y0024352D01*
X0094342Y0024413D01*
X0094526Y0024470D01*
X0094711Y0024522D01*
X0094897Y0024570D01*
X0095084Y0024614D01*
X0095272Y0024653D01*
X0095461Y0024687D01*
X0095651Y0024717D01*
X0095841Y0024742D01*
X0096032Y0024763D01*
X0096224Y0024779D01*
X0096416Y0024791D01*
X0096608Y0024798D01*
X0096800Y0024800D01*
X0102907Y0011632D02*
X0102780Y0011486D01*
X0102651Y0011344D01*
X0102517Y0011204D01*
X0102381Y0011068D01*
X0102241Y0010935D01*
X0102098Y0010805D01*
X0101951Y0010679D01*
X0101802Y0010557D01*
X0101650Y0010438D01*
X0101495Y0010323D01*
X0101338Y0010211D01*
X0101178Y0010104D01*
X0101015Y0010000D01*
X0100849Y0009901D01*
X0100682Y0009805D01*
X0100512Y0009713D01*
X0100340Y0009626D01*
X0100166Y0009542D01*
X0099990Y0009463D01*
X0099812Y0009389D01*
X0099632Y0009318D01*
X0099451Y0009252D01*
X0099268Y0009190D01*
X0099084Y0009133D01*
X0098898Y0009080D01*
X0098711Y0009032D01*
X0098523Y0008988D01*
X0098334Y0008949D01*
X0098144Y0008914D01*
X0097954Y0008884D01*
X0097763Y0008858D01*
X0097571Y0008837D01*
X0097378Y0008821D01*
X0097186Y0008809D01*
X0096993Y0008802D01*
X0096800Y0008800D01*
X0102946Y0021922D02*
X0102819Y0022070D01*
X0102689Y0022215D01*
X0102556Y0022356D01*
X0102419Y0022495D01*
X0102279Y0022630D01*
X0102135Y0022761D01*
X0101988Y0022889D01*
X0101839Y0023014D01*
X0101686Y0023135D01*
X0101531Y0023252D01*
X0101372Y0023365D01*
X0101211Y0023474D01*
X0101047Y0023579D01*
X0100881Y0023681D01*
X0100712Y0023778D01*
X0100542Y0023871D01*
X0100368Y0023960D01*
X0100193Y0024045D01*
X0100016Y0024125D01*
X0099837Y0024201D01*
X0099656Y0024273D01*
X0099473Y0024340D01*
X0099289Y0024403D01*
X0099103Y0024461D01*
X0098916Y0024515D01*
X0098728Y0024564D01*
X0098538Y0024609D01*
X0098348Y0024649D01*
X0098156Y0024684D01*
X0097964Y0024715D01*
X0097771Y0024741D01*
X0097577Y0024762D01*
X0097383Y0024779D01*
X0097189Y0024791D01*
X0096995Y0024798D01*
X0096800Y0024800D01*
D116*
X0117600Y0016800D03*
X0146000Y0016800D03*
X0147600Y0166800D03*
X0176000Y0166800D03*
D117*
X0051800Y0046000D03*
X0041800Y0046000D03*
X0041800Y0017600D03*
X0051800Y0017600D03*
M02*
